<?xml version="1.0" standalone="no"?>
<!DOCTYPE svg PUBLIC "-//W3C//DTD SVG 20010904//EN"
 "http://www.w3.org/TR/2001/REC-SVG-20010904/DTD/svg10.dtd">
<svg version="1.0" xmlns="http://www.w3.org/2000/svg"
 width="1200.000000pt" height="1200.000000pt" viewBox="0 0 1200.000000 1200.000000"
 preserveAspectRatio="xMidYMid meet">

<g transform="translate(0.000000,1200.000000) scale(0.100000,-0.100000)"
fill="#000000" stroke="none">
<path d="M10896 8971 c-3 -5 -1 -34 5 -66 6 -31 7 -71 4 -88 -5 -22 -4 -29 3
-22 12 11 16 55 14 133 -2 48 -13 65 -26 43z"/>
<path d="M9600 8620 c0 -5 5 -10 10 -10 6 0 10 5 10 10 0 6 -4 10 -10 10 -5 0
-10 -4 -10 -10z"/>
<path d="M9506 8592 c-3 -3 -6 -9 -6 -14 0 -11 37 -10 44 1 6 10 -30 22 -38
13z"/>
<path d="M10390 8490 c0 -5 5 -10 10 -10 6 0 10 5 10 10 0 6 -4 10 -10 10 -5
0 -10 -4 -10 -10z"/>
<path d="M9696 8442 c-13 -12 -5 -20 22 -21 15 0 35 -1 46 -1 18 -1 33 7 25
14 -8 6 -88 14 -93 8z"/>
<path d="M9500 8420 c0 -5 5 -10 10 -10 6 0 10 5 10 10 0 6 -4 10 -10 10 -5 0
-10 -4 -10 -10z"/>
<path d="M9653 8403 c-12 -2 -25 -12 -28 -23 -3 -10 -15 -20 -27 -24 -12 -3
-19 -8 -16 -11 12 -12 54 8 76 36 13 16 22 28 20 28 -2 -1 -13 -4 -25 -6z"/>
<path d="M9420 8370 c-12 -8 -9 -10 13 -10 15 0 27 5 27 10 0 13 -20 13 -40 0z"/>
<path d="M9460 8339 c0 -7 8 -18 18 -25 16 -13 16 -15 -2 -29 -32 -25 -10 -29
23 -4 36 27 40 54 9 63 -34 9 -48 7 -48 -5z"/>
<path d="M9266 8292 c-16 -26 40 -92 64 -77 16 10 12 23 -6 21 -28 -2 -27 23
0 35 14 7 26 16 26 21 0 10 -77 11 -84 0z"/>
<path d="M9376 8293 c-11 -11 -6 -23 9 -23 8 0 15 4 15 9 0 13 -16 22 -24 14z"/>
<path d="M9083 8266 c-25 -12 -31 -26 -10 -26 14 1 47 24 47 34 0 8 -10 6 -37
-8z"/>
<path d="M9202 8259 c2 -7 10 -15 17 -17 8 -3 12 1 9 9 -2 7 -10 15 -17 17 -8
3 -12 -1 -9 -9z"/>
<path d="M9356 8203 c-11 -11 -6 -23 9 -23 8 0 15 4 15 9 0 13 -16 22 -24 14z"/>
<path d="M9060 8192 c0 -5 7 -13 16 -16 8 -3 12 -10 9 -16 -3 -5 1 -10 9 -10
9 0 16 4 16 8 0 5 12 13 28 19 l27 10 -35 0 c-19 -1 -43 3 -52 7 -11 5 -18 4
-18 -2z"/>
<path d="M9040 8114 c0 -8 5 -12 10 -9 6 4 8 11 5 16 -9 14 -15 11 -15 -7z"/>
<path d="M8848 8103 c7 -3 16 -2 19 1 4 3 -2 6 -13 5 -11 0 -14 -3 -6 -6z"/>
<path d="M8996 8090 c-16 -5 -17 -8 -4 -12 16 -7 45 7 32 14 -5 3 -18 2 -28
-2z"/>
<path d="M9090 8085 c-10 -12 -10 -15 3 -15 23 0 47 11 47 21 0 15 -37 10 -50
-6z"/>
<path d="M9330 8081 c0 -5 7 -15 17 -22 15 -13 15 -12 4 9 -12 23 -21 28 -21
13z"/>
<path d="M9020 8040 c-8 -5 -12 -12 -9 -15 4 -3 12 1 19 10 14 17 11 19 -10 5z"/>
<path d="M8705 8031 c-10 -18 17 -23 33 -7 15 15 15 16 -5 16 -12 0 -24 -4
-28 -9z"/>
<path d="M9088 8005 c-2 -3 -20 -6 -38 -8 -33 -4 -56 -27 -28 -27 17 0 98 39
82 40 -6 0 -13 -2 -16 -5z"/>
<path d="M8595 7962 c-25 -14 -27 -17 -11 -20 10 -2 28 5 39 17 25 24 14 25
-28 3z"/>
<path d="M8785 7950 c-3 -5 3 -10 14 -10 12 0 21 5 21 10 0 6 -6 10 -14 10 -8
0 -18 -4 -21 -10z"/>
<path d="M8730 7910 c-8 -14 -8 -20 0 -20 6 0 20 9 32 20 l22 20 -22 0 c-12 0
-26 -9 -32 -20z"/>
<path d="M8645 7850 c-3 -5 9 -9 30 -8 19 1 35 5 35 10 0 11 -57 10 -65 -2z"/>
<path d="M8425 7830 c-3 -5 1 -10 10 -10 9 0 13 5 10 10 -3 6 -8 10 -10 10 -2
0 -7 -4 -10 -10z"/>
<path d="M8505 7760 c-3 -5 1 -10 9 -10 9 0 16 5 16 10 0 6 -4 10 -9 10 -6 0
-13 -4 -16 -10z"/>
<path d="M8300 7743 c-24 -12 -24 -13 -3 -13 12 0 25 5 28 11 11 16 2 17 -25
2z"/>
<path d="M8735 7750 c3 -5 8 -10 11 -10 2 0 4 5 4 10 0 6 -5 10 -11 10 -5 0
-7 -4 -4 -10z"/>
<path d="M8540 7700 c0 -5 9 -10 20 -10 11 0 20 5 20 10 0 6 -9 10 -20 10 -11
0 -20 -4 -20 -10z"/>
<path d="M8290 7620 c0 -5 5 -10 10 -10 6 0 10 5 10 10 0 6 -4 10 -10 10 -5 0
-10 -4 -10 -10z"/>
<path d="M7915 7540 c-3 -6 1 -7 9 -4 18 7 21 14 7 14 -6 0 -13 -4 -16 -10z"/>
<path d="M7759 7471 c-13 -10 -35 -22 -47 -26 -18 -5 -22 -12 -18 -28 6 -26
-10 -47 -36 -47 -11 0 -22 -9 -25 -20 -3 -11 -13 -20 -23 -20 -10 0 -23 -7
-30 -15 -25 -30 28 -9 140 54 8 4 32 16 53 26 20 10 37 22 37 27 0 11 -17 10
-25 -2 -8 -13 -45 -13 -45 0 0 6 13 19 30 28 16 9 30 23 30 30 0 17 -13 15
-41 -7z"/>
<path d="M8080 7480 c0 -5 9 -10 20 -10 11 0 20 5 20 10 0 6 -9 10 -20 10 -11
0 -20 -4 -20 -10z"/>
<path d="M8032 7442 c-8 -6 -2 -9 18 -9 20 0 26 3 18 9 -7 4 -15 8 -18 8 -3 0
-11 -4 -18 -8z"/>
<path d="M7623 7393 c-18 -7 -16 -23 2 -23 8 0 15 7 15 15 0 8 -1 15 -2 14 -2
0 -9 -3 -15 -6z"/>
<path d="M7729 7349 c-11 -11 -19 -23 -16 -25 6 -6 67 29 67 39 0 15 -31 6
-51 -14z"/>
<path d="M7540 7339 c0 -5 5 -7 10 -4 6 3 10 8 10 11 0 2 -4 4 -10 4 -5 0 -10
-5 -10 -11z"/>
<path d="M7865 7300 c3 -5 8 -10 11 -10 2 0 4 5 4 10 0 6 -5 10 -11 10 -5 0
-7 -4 -4 -10z"/>
<path d="M7500 7280 c0 -5 6 -10 14 -10 8 0 18 5 21 10 3 6 -3 10 -14 10 -12
0 -21 -4 -21 -10z"/>
<path d="M7598 7274 c-4 -3 -12 -6 -20 -7 -15 -3 -24 -20 -11 -24 11 -3 48 25
41 32 -2 3 -7 2 -10 -1z"/>
<path d="M7470 7259 c0 -5 5 -7 10 -4 6 3 10 8 10 11 0 2 -4 4 -10 4 -5 0 -10
-5 -10 -11z"/>
<path d="M7510 7220 c0 -5 6 -10 14 -10 8 0 18 5 21 10 3 6 -3 10 -14 10 -12
0 -21 -4 -21 -10z"/>
<path d="M7478 7203 c7 -3 16 -2 19 1 4 3 -2 6 -13 5 -11 0 -14 -3 -6 -6z"/>
<path d="M7357 7155 c-4 -8 -25 -24 -47 -35 -50 -26 -46 -37 7 -19 46 15 82
40 83 57 0 17 -37 15 -43 -3z"/>
<path d="M7180 7054 c0 -14 3 -14 15 -4 8 7 15 14 15 16 0 2 -7 4 -15 4 -8 0
-15 -7 -15 -16z"/>
<path d="M6973 7000 c-27 -12 -43 -26 -43 -37 0 -13 -3 -14 -12 -5 -19 19 -35
14 -40 -13 -7 -33 20 -34 54 -2 13 12 40 34 59 49 41 32 38 34 -18 8z"/>
<path d="M6973 6934 c-43 -25 -55 -44 -29 -44 8 0 17 -6 19 -12 3 -7 6 -3 6 8
1 28 49 39 73 17 18 -16 48 -12 48 7 0 9 -57 50 -70 50 -3 0 -24 -12 -47 -26z"/>
<path d="M7340 6940 c0 -5 5 -10 10 -10 6 0 10 5 10 10 0 6 -4 10 -10 10 -5 0
-10 -4 -10 -10z"/>
<path d="M6998 6834 c3 -15 8 -22 14 -16 9 9 1 42 -12 42 -4 0 -5 -12 -2 -26z"/>
<path d="M6760 6820 c0 -5 4 -10 9 -10 6 0 13 5 16 10 3 6 -1 10 -9 10 -9 0
-16 -4 -16 -10z"/>
<path d="M6717 6813 c-4 -3 -7 -11 -7 -17 0 -6 5 -5 12 2 6 6 9 14 7 17 -3 3
-9 2 -12 -2z"/>
<path d="M6670 6780 c0 -5 5 -10 10 -10 6 0 10 5 10 10 0 6 -4 10 -10 10 -5 0
-10 -4 -10 -10z"/>
<path d="M6740 6748 c-25 -12 -49 -20 -53 -19 -5 1 -6 -3 -2 -9 7 -11 71 12
95 35 19 20 14 19 -40 -7z"/>
<path d="M6620 6684 c0 -9 5 -14 12 -12 18 6 21 28 4 28 -9 0 -16 -7 -16 -16z"/>
<path d="M6583 6673 c-7 -3 -13 -11 -13 -20 0 -12 2 -12 16 2 18 17 16 25 -3
18z"/>
<path d="M6670 6655 c-14 -16 -10 -18 14 -9 9 3 16 10 16 15 0 14 -16 11 -30
-6z"/>
<path d="M6170 6510 c-13 -8 -12 -10 3 -10 9 0 17 5 17 10 0 12 -1 12 -20 0z"/>
<path d="M6120 6480 c0 -5 5 -10 10 -10 6 0 10 5 10 10 0 6 -4 10 -10 10 -5 0
-10 -4 -10 -10z"/>
<path d="M6070 6460 c0 -5 5 -10 11 -10 5 0 7 5 4 10 -3 6 -8 10 -11 10 -2 0
-4 -4 -4 -10z"/>
<path d="M6170 6335 c0 -8 -4 -15 -9 -15 -16 0 -65 -50 -57 -57 4 -4 17 5 29
19 12 14 32 31 45 38 12 6 20 15 17 21 -9 14 -25 11 -25 -6z"/>
<path d="M5725 6120 c-3 -5 1 -10 9 -10 9 0 16 5 16 10 0 6 -4 10 -9 10 -6 0
-13 -4 -16 -10z"/>
<path d="M5140 5859 c-25 -14 -29 -19 -15 -19 11 0 31 9 45 20 32 25 15 25
-30 -1z"/>
<path d="M4665 5610 c-10 -12 -24 -19 -30 -16 -6 2 -22 -5 -36 -16 -24 -19
-24 -19 -1 -8 13 6 30 9 38 6 8 -3 20 3 26 14 7 11 18 20 25 20 7 0 13 5 13
10 0 16 -15 12 -35 -10z"/>
<path d="M4435 5490 c-3 -5 -2 -10 4 -10 5 0 13 5 16 10 3 6 2 10 -4 10 -5 0
-13 -4 -16 -10z"/>
<path d="M4393 5473 c-14 -5 -18 -33 -5 -33 10 0 32 22 32 32 0 9 -8 9 -27 1z"/>
<path d="M4332 5428 c-14 -14 -16 -38 -4 -38 12 0 32 23 32 37 0 16 -12 17
-28 1z"/>
<path d="M4556 5415 c-3 -8 -1 -15 3 -15 5 0 11 7 15 15 3 8 1 15 -3 15 -5 0
-11 -7 -15 -15z"/>
<path d="M4368 5386 c-19 -14 -23 -26 -10 -26 4 0 13 9 20 20 14 23 13 24 -10
6z"/>
<path d="M4230 5375 c-24 -15 -24 -15 19 -13 25 2 46 9 49 16 5 17 -37 15 -68
-3z"/>
<path d="M4261 5336 c-9 -11 -6 -12 14 -8 14 2 25 8 25 13 0 14 -26 11 -39 -5z"/>
<path d="M4153 5273 c-3 -10 -13 -26 -20 -35 -17 -19 -9 -40 12 -31 8 3 15 17
15 30 0 14 8 32 18 39 16 13 16 13 -1 14 -10 0 -20 -8 -24 -17z"/>
<path d="M4048 5228 c-10 -6 -10 -10 2 -18 20 -13 23 -12 45 4 17 12 17 13 -8
18 -14 3 -32 1 -39 -4z"/>
<path d="M3965 5190 c3 -5 15 -10 26 -10 10 0 19 5 19 10 0 6 -12 10 -26 10
-14 0 -23 -4 -19 -10z"/>
<path d="M4081 5179 c-13 -11 -21 -22 -18 -26 8 -7 57 24 57 37 0 15 -12 12
-39 -11z"/>
<path d="M4021 5151 c-15 -10 -6 -51 11 -51 5 0 8 7 5 15 -4 8 -2 17 3 20 12
7 13 25 3 25 -5 0 -14 -4 -22 -9z"/>
<path d="M3821 5106 c-9 -11 -9 -15 1 -19 7 -2 -2 -4 -21 -3 -19 0 -36 -4 -38
-10 -2 -7 5 -10 22 -7 32 7 32 -10 0 -31 -14 -9 -25 -14 -25 -10 0 4 -7 0 -16
-7 -15 -12 -13 -14 11 -21 27 -7 92 22 78 35 -3 4 -1 7 6 7 20 0 81 31 81 41
0 5 -12 9 -27 9 -14 0 -34 7 -43 15 -15 13 -19 14 -29 1z"/>
<path d="M3950 5020 c0 -5 5 -10 11 -10 5 0 7 5 4 10 -3 6 -8 10 -11 10 -2 0
-4 -4 -4 -10z"/>
<path d="M844 3230 l6 -35 -20 25 -20 25 -30 -32 c-41 -46 -47 -91 -19 -147
12 -26 30 -54 39 -64 8 -9 41 -49 72 -88 86 -108 138 -141 180 -115 11 7 28 9
39 6 43 -14 15 98 -63 253 -11 21 -12 21 -30 5 -13 -12 -22 -13 -29 -6 -8 8
-3 23 17 52 l27 42 -23 24 c-13 14 -25 32 -26 41 -1 9 -11 22 -21 29 -15 12
-19 11 -21 -1 -2 -8 -8 -12 -13 -9 -13 9 -11 -3 5 -33 15 -27 37 -92 32 -92
-1 0 -18 24 -36 53 -19 28 -42 63 -53 77 l-20 25 7 -35z"/>
</g>
</svg>
