<?xml version="1.0" standalone="no"?>
<!DOCTYPE svg PUBLIC "-//W3C//DTD SVG 20010904//EN"
 "http://www.w3.org/TR/2001/REC-SVG-20010904/DTD/svg10.dtd">
<svg version="1.0" xmlns="http://www.w3.org/2000/svg"
 width="264.000000pt" height="191.000000pt" viewBox="0 0 264.000000 191.000000"
 preserveAspectRatio="xMidYMid meet">

<g transform="translate(0.000000,191.000000) scale(0.100000,-0.100000)"
fill="#000000" stroke="none">
<path d="M0 1707 l0 -203 48 -11 c26 -6 65 -18 88 -26 23 -9 87 -28 143 -42
l102 -26 20 23 20 23 -5 -27 c-5 -22 -3 -26 9 -22 20 8 19 -7 -1 -32 -10 -12
-14 -14 -11 -4 4 12 -3 15 -34 12 -22 -2 -39 -8 -39 -13 0 -5 -8 -9 -17 -8
-11 0 -13 3 -6 6 22 8 14 23 -12 23 -14 0 -33 5 -43 10 -9 6 -64 26 -122 44
-58 19 -113 37 -122 41 -17 7 -18 -3 -18 -124 0 -144 2 -148 62 -117 24 13 27
12 32 -8 9 -32 8 -33 -26 -31 -59 4 -68 -3 -68 -49 l0 -43 133 -11 c156 -14
227 -15 227 -4 0 12 50 33 61 26 5 -3 12 8 15 25 4 17 10 28 15 26 4 -3 10 -1
14 5 3 5 -1 10 -11 10 -13 0 -14 3 -5 14 9 11 8 14 -6 12 -11 0 -17 5 -15 14
2 8 7 33 12 55 4 22 8 34 9 27 1 -9 8 -9 32 3 25 13 30 21 25 40 -7 27 10 43
27 26 8 -8 6 -11 -8 -11 -16 0 -17 -2 -6 -9 19 -12 50 4 61 32 5 12 9 16 9 9
1 -7 6 -10 11 -7 6 4 7 11 4 17 -4 7 -2 8 4 4 6 -4 34 10 62 30 50 36 63 51
35 41 -8 -4 -17 -2 -20 3 -3 5 10 9 30 8 19 -1 38 2 42 5 3 4 15 0 25 -10 10
-9 18 -11 18 -5 0 6 6 9 13 6 9 -3 17 8 24 31 6 19 7 35 2 35 -5 0 -9 -4 -9
-9 0 -5 -7 -12 -16 -15 -9 -4 -13 -2 -8 5 4 6 0 15 -7 20 -10 6 -4 9 17 9 24
0 33 5 38 23 l6 22 16 -25 c8 -14 13 -17 10 -7 -3 9 -1 17 4 17 6 0 10 -4 10
-8 0 -5 11 -14 24 -20 20 -9 25 -7 35 14 6 14 11 40 11 59 0 19 5 35 11 35 5
0 7 -5 3 -12 -4 -7 -3 -8 4 -4 6 4 9 13 6 21 -4 10 0 12 15 8 19 -5 19 -33 0
-33 -16 0 -9 -18 9 -23 10 -3 7 -5 -10 -6 -20 -1 -26 -5 -22 -16 4 -8 1 -15
-6 -15 -6 0 -9 -4 -6 -9 4 -5 1 -11 -6 -13 -8 -3 -6 -17 10 -46 12 -23 17 -42
12 -42 -6 0 -10 7 -10 15 0 12 -3 12 -18 -2 -12 -12 -14 -21 -8 -25 7 -5 7 -8
-1 -8 -9 0 -10 -7 -3 -24 5 -13 6 -33 3 -44 -4 -16 -1 -20 13 -18 16 2 30 -10
71 -64 8 -11 9 -20 1 -30 -8 -13 -9 -13 -5 1 3 8 -4 26 -14 40 l-19 24 10 -28
c6 -16 6 -26 1 -22 -6 3 -14 -2 -19 -11 -5 -10 -12 -12 -16 -6 -3 5 1 15 9 22
18 15 -1 51 -23 42 -9 -3 -13 -1 -10 4 4 5 -7 10 -23 11 -23 2 -29 -2 -29 -17
0 -24 -27 -16 -35 10 -4 11 -12 17 -20 13 -8 -3 -13 -8 -11 -12 4 -6 -53 -13
-134 -15 -25 0 -47 -3 -50 -6 -10 -10 -66 -46 -94 -60 -50 -26 -89 -68 -81
-88 9 -20 18 -72 9 -55 -3 7 -12 9 -20 6 -12 -4 -12 -8 3 -20 10 -8 12 -12 5
-8 -7 4 -16 -3 -21 -17 -8 -21 -5 -24 28 -34 20 -6 36 -17 36 -25 0 -8 -4 -13
-10 -12 -5 0 -93 8 -195 17 -102 9 -213 19 -248 22 l-63 6 3 -84 3 -83 85 -11
c109 -16 191 -17 170 -4 -12 7 -8 10 15 10 17 0 41 3 54 7 17 4 22 3 17 -5 -5
-8 0 -12 13 -12 33 0 24 -15 -16 -30 -21 -7 -42 -19 -48 -26 -8 -9 -23 -10
-65 -3 -30 5 -86 12 -125 15 -38 3 -78 7 -88 10 -16 5 -17 -20 -17 -420 l0
-426 1320 0 1320 0 0 955 0 955 -1320 0 -1320 0 0 -203z m1278 1 c8 -60 8 -80
0 -84 -4 -3 -11 2 -15 11 -3 10 -1 20 6 24 7 4 9 15 5 26 -7 17 -8 17 -21 -1
-12 -16 -13 -16 -13 9 0 20 5 27 18 27 10 0 19 -6 20 -12z m298 -22 c-3 -14
-2 -28 4 -31 5 -3 7 0 4 8 -6 16 22 31 31 17 4 -6 1 -10 -4 -10 -6 0 -11 -5
-11 -11 0 -5 5 -7 10 -4 6 3 10 2 10 -3 0 -5 -9 -12 -20 -15 -14 -4 -18 -10
-13 -22 6 -16 7 -16 18 -2 7 9 15 14 18 10 4 -3 7 4 7 18 l0 23 16 -22 c8 -12
12 -27 8 -33 -3 -6 0 -15 7 -20 9 -6 4 -7 -16 -3 -25 5 -28 4 -17 -7 15 -17
16 -30 0 -26 -19 3 -35 20 -42 45 -6 19 -16 25 -36 24 -3 0 -3 20 -1 44 2 31
7 44 18 44 11 0 14 -7 9 -24z m-464 -18 c20 -7 -7 -35 -32 -33 -24 2 -35 11
-15 13 8 1 22 3 30 4 8 1 12 5 9 10 -4 5 -13 7 -21 4 -22 -9 -35 3 -21 18 10
10 15 11 25 0 7 -7 18 -14 25 -16z m72 3 c-16 -39 -15 -57 8 -76 16 -14 19
-15 9 -3 -7 9 -10 22 -6 28 3 5 0 10 -7 10 -9 0 -9 3 2 10 8 5 11 10 5 10 -13
0 17 20 30 20 6 0 3 -5 -5 -10 -13 -9 -13 -11 0 -19 8 -5 18 -7 22 -5 10 6 11
-10 1 -19 -3 -4 -12 -2 -19 4 -17 14 -29 -7 -15 -25 6 -7 9 -21 5 -29 -5 -15
-8 -15 -29 1 -13 9 -21 20 -19 24 2 3 -5 4 -16 1 -11 -3 -20 0 -20 6 0 6 3 11
8 11 12 0 34 59 28 75 -3 9 0 12 10 8 9 -3 13 -12 8 -22z m290 4 c-4 -8 -1
-15 5 -15 6 0 11 8 11 18 0 13 2 14 9 4 4 -8 12 -13 16 -13 13 2 15 -32 3 -46
-6 -7 -14 -11 -18 -8 -5 3 -12 1 -15 -5 -4 -6 -3 -10 2 -9 25 4 41 -3 39 -17
-3 -22 -35 -44 -63 -44 -37 0 -26 -15 12 -17 20 -1 33 3 30 8 -4 5 -1 9 4 9 6
0 11 -6 12 -12 0 -10 2 -10 6 0 4 10 8 10 21 0 13 -11 15 -10 9 5 -3 9 -4 24
0 33 5 13 9 12 27 -5 12 -11 32 -22 44 -24 32 -5 37 -15 17 -37 -20 -22 -13
-55 10 -46 8 3 17 1 20 -3 6 -11 -19 -21 -32 -13 -17 12 -35 52 -23 52 6 0 8
5 5 10 -3 6 -1 10 5 10 6 0 9 4 5 10 -3 5 -12 7 -19 4 -7 -3 -21 2 -30 11 -15
15 -16 15 -16 -5 0 -14 -5 -20 -12 -17 -7 2 -22 1 -33 -4 -17 -6 -17 -8 -2 -8
10 -1 17 -9 17 -22 0 -12 4 -17 11 -14 6 4 5 -2 -2 -13 -8 -13 -20 -19 -35
-16 -14 3 -24 -1 -26 -11 -2 -12 -11 -8 -38 15 l-35 30 33 0 c37 0 42 14 10
31 -13 7 -27 17 -31 23 -6 8 -10 7 -14 -1 -2 -7 -11 -13 -19 -13 -12 0 -12 4
1 24 11 16 22 22 35 19 15 -4 20 0 20 16 0 17 -5 21 -25 17 -13 -3 -29 -7 -35
-11 -5 -3 -10 -2 -10 4 0 6 -9 15 -20 21 -24 13 -27 -2 -4 -24 8 -9 11 -16 6
-16 -5 0 -17 9 -27 20 -10 11 -14 20 -10 20 4 0 1 8 -7 18 -9 9 -14 25 -13 35
4 23 18 38 15 17 -4 -27 0 -53 7 -47 3 4 17 0 30 -8 21 -14 24 -14 29 -1 3 8
3 19 0 25 -12 19 11 20 28 2 16 -17 16 -19 -5 -24 -27 -7 -16 -27 13 -22 29 6
33 12 18 30 -10 12 -10 21 -2 40 12 27 46 36 36 10z m260 -21 c4 -10 1 -14 -6
-12 -15 5 -23 28 -10 28 5 0 13 -7 16 -16z m-39 -4 c3 -5 0 -10 -7 -10 -10 0
-10 -2 1 -9 8 -5 9 -11 3 -15 -9 -6 -22 14 -22 35 0 12 17 12 25 -1z m-589
-58 c-22 -23 -29 -10 -9 18 11 16 18 19 21 11 2 -7 -3 -20 -12 -29z m621 23
c0 -8 -6 -16 -13 -19 -7 -3 -10 2 -7 15 6 22 20 26 20 4z m58 -5 c3 -5 -1 -10
-10 -10 -9 0 -13 5 -10 10 3 6 8 10 10 10 2 0 7 -4 10 -10z m-971 -24 c-10 -8
-21 -12 -23 -10 -3 2 4 11 15 18 10 8 21 12 23 10 3 -2 -4 -11 -15 -18z m746
20 c0 -3 -4 -8 -10 -11 -5 -3 -10 -1 -10 4 0 6 5 11 10 11 6 0 10 -2 10 -4z
m-253 -32 c-3 -4 -14 -3 -24 0 -15 6 -15 8 -3 16 16 10 39 -4 27 -16z m591 -4
c-15 -24 -19 -21 -11 8 3 12 9 19 14 16 5 -3 3 -14 -3 -24z m-892 3 c-8 -25 9
-47 28 -40 10 4 16 1 16 -8 0 -20 -20 -18 -49 4 -17 13 -22 23 -16 39 3 12 11
22 16 22 6 0 8 -8 5 -17z m934 13 c0 -3 -4 -8 -10 -11 -5 -3 -10 -1 -10 4 0 6
5 11 10 11 6 0 10 -2 10 -4z m-136 -18 c-5 -8 -2 -9 9 -5 10 3 17 3 17 -2 0
-16 -13 -19 -37 -8 -23 10 -23 12 -6 18 25 10 25 10 17 -3z m-533 -18 c10 0
19 -4 19 -9 0 -12 -24 -20 -46 -16 -11 2 -22 4 -26 4 -4 1 0 10 10 21 9 11 18
16 20 10 2 -5 12 -10 23 -10z m-176 -19 c-7 -22 -25 -29 -25 -11 0 12 23 40
28 35 2 -2 1 -13 -3 -24z m239 21 c2 -4 -4 -8 -14 -8 -10 0 -16 4 -14 8 3 4 9
8 14 8 5 0 11 -4 14 -8z m-164 -23 c0 -6 -4 -7 -10 -4 -5 3 -10 11 -10 16 0 6
5 7 10 4 6 -3 10 -11 10 -16z m-41 -20 c-10 -20 -29 -26 -29 -8 0 5 5 7 12 3
7 -5 9 0 6 14 -4 15 -2 19 8 15 10 -4 11 -10 3 -24z m669 24 c-2 -5 -10 -20
-17 -36 -18 -34 -9 -44 23 -28 13 8 30 10 37 5 9 -5 8 -9 -7 -15 -17 -7 -17
-8 -1 -8 17 -1 22 -12 10 -24 -3 -4 -13 -1 -21 5 -22 19 -42 18 -42 -1 0 -23
-27 -23 -33 0 -4 13 0 16 11 11 12 -4 11 1 -5 22 -20 25 -21 30 -8 43 8 8 15
19 15 24 0 5 9 9 21 9 11 0 19 -3 17 -7z m62 -8 c-7 -8 -17 -15 -23 -15 -6 0
-2 7 9 15 25 19 30 19 14 0z m-502 -14 c8 -4 13 -11 13 -15 -3 -19 1 -25 19
-31 11 -4 17 -11 14 -17 -4 -7 -9 -6 -14 1 -3 7 -20 14 -36 17 -30 5 -58 24
-36 24 7 0 11 3 11 8 -4 23 6 28 29 13z m-113 -11 c3 -5 1 -10 -4 -10 -6 0
-11 5 -11 10 0 6 2 10 4 10 3 0 8 -4 11 -10z m-28 -31 c9 -22 9 -29 0 -26 -12
4 -29 57 -18 57 3 0 12 -14 18 -31z m73 27 c0 -3 -4 -8 -10 -11 -5 -3 -10 -1
-10 4 0 6 5 11 10 11 6 0 10 -2 10 -4z m-629 -39 c-16 -16 -26 0 -10 19 9 11
15 12 17 4 2 -6 -1 -17 -7 -23z m1254 13 c10 -11 14 -20 8 -20 -5 0 -18 9 -28
20 -10 11 -14 20 -8 20 5 0 18 -9 28 -20z m-835 0 c0 -5 -8 -10 -17 -10 -15 0
-16 2 -3 10 19 12 20 12 20 0z m210 -10 c-6 -11 -15 -20 -20 -20 -6 0 -2 9 7
20 10 11 19 20 21 20 1 0 -2 -9 -8 -20z m312 9 c2 -2 1 -3 -1 -2 -2 2 -9 -2
-16 -7 -8 -7 -12 -5 -12 4 0 12 22 16 29 5z m125 -8 c2 -26 -22 -47 -30 -27
-4 11 -1 13 10 9 12 -5 15 -2 10 9 -3 9 -3 19 0 22 9 8 9 8 10 -13z m-737 0
c0 -6 -4 -13 -10 -16 -18 -11 -10 -26 12 -23 18 3 22 -2 23 -32 2 -35 2 -35
-8 -7 -6 15 -15 27 -20 27 -4 0 -6 -4 -3 -8 3 -5 0 -9 -7 -9 -12 0 -20 41 -12
65 5 14 25 16 25 3z m-527 -16 c-3 -9 -8 -14 -10 -11 -3 3 -2 9 2 15 9 16 15
13 8 -4z m637 -29 c0 -5 6 -4 13 2 6 5 28 12 47 16 27 5 30 4 13 -3 -16 -7
-20 -16 -16 -33 4 -21 3 -22 -10 -5 -14 17 -40 19 -64 4 -6 -4 -15 -2 -19 4
-4 8 -3 9 4 5 7 -4 12 -3 12 2 0 18 -29 21 -39 4 -6 -9 -11 -14 -11 -9 0 4 5
15 11 26 10 15 16 16 35 7 13 -6 24 -15 24 -20z m340 20 c0 -3 -4 -8 -10 -11
-5 -3 -10 -1 -10 4 0 6 5 11 10 11 6 0 10 -2 10 -4z m254 -45 c-8 -9 -22 12
-17 26 6 15 7 14 13 -3 4 -10 6 -21 4 -23z m-504 8 c0 -5 -4 -9 -8 -9 -5 0 -9
7 -9 15 0 8 4 12 9 9 4 -3 8 -9 8 -15z m146 12 c17 14 19 -2 2 -19 -18 -18
-28 -14 -27 11 0 12 3 16 6 9 4 -10 8 -10 19 -1z m49 -21 c-5 -8 -11 -8 -17
-2 -6 6 -7 16 -3 22 5 8 11 8 17 2 6 -6 7 -16 3 -22z m177 8 c-2 -11 -5 -17
-6 -16 -1 2 -7 11 -15 20 -11 15 -10 17 7 15 13 -1 18 -7 14 -19z m73 13 c3
-5 1 -12 -5 -16 -5 -3 -10 1 -10 9 0 18 6 21 15 7z m-135 -33 c0 -19 -2 -20
-10 -8 -13 19 -13 30 0 30 6 0 10 -10 10 -22z m100 12 c8 -5 11 -10 5 -10 -5
0 -17 5 -25 10 -8 5 -10 10 -5 10 6 0 17 -5 25 -10z m163 -5 c-1 -5 -7 -11
-15 -13 -10 -3 -9 -1 1 6 11 8 9 11 -10 15 l-24 5 25 -1 c14 -1 24 -6 23 -12z
m259 -10 c-2 -15 0 -25 7 -25 7 0 9 -4 6 -10 -3 -5 -9 -10 -13 -10 -9 0 -14
49 -6 61 9 15 11 10 6 -16z m-1802 -11 c0 -2 -9 -4 -21 -4 -11 0 -18 4 -14 10
5 8 35 3 35 -6z m915 -11 c10 -16 12 -22 5 -16 -11 10 -17 10 -29 0 -14 -11
-14 -10 -2 6 13 16 2 25 -13 10 -10 -10 -56 -11 -56 -2 0 4 9 9 20 12 11 3 18
1 14 -4 -3 -5 -1 -9 4 -9 6 0 12 7 16 15 8 22 22 18 41 -12z m95 17 c0 -5 -2
-10 -4 -10 -3 0 -8 5 -11 10 -3 6 -1 10 4 10 6 0 11 -4 11 -10z m191 -13 c-10
-9 -11 -8 -5 6 3 10 9 15 12 12 3 -3 0 -11 -7 -18z m263 8 c3 -8 1 -15 -4 -15
-6 0 -10 5 -10 11 0 5 -4 8 -9 5 -4 -3 -7 -18 -5 -33 4 -28 4 -28 -5 -3 -6 17
-9 20 -10 8 -1 -18 -12 -23 -24 -12 -6 6 42 53 54 54 4 0 9 -7 13 -15z m450
-1 c3 -8 2 -12 -4 -9 -6 3 -10 10 -10 16 0 14 7 11 14 -7z m116 12 c0 -3 -4
-8 -10 -11 -5 -3 -10 -1 -10 4 0 6 5 11 10 11 6 0 10 -2 10 -4z m-164 -25
c-10 -11 -15 -24 -12 -29 3 -6 -1 -9 -9 -8 -9 1 -15 5 -15 9 0 4 0 10 0 15 0
4 10 12 23 18 32 16 32 16 13 -5z m274 -2 c0 -14 -17 -10 -23 5 -4 10 -1 13 9
9 7 -3 14 -9 14 -14z m-1983 -11 c-12 -13 -24 -19 -25 -15 -5 11 18 37 34 37
9 0 5 -8 -9 -22z m1023 7 c0 -8 -4 -15 -10 -15 -5 0 -7 7 -4 15 4 8 8 15 10
15 2 0 4 -7 4 -15z m187 9 c-3 -3 -12 -4 -19 -1 -8 3 -5 6 6 6 11 1 17 -2 13
-5z m-657 -19 c0 -8 -4 -15 -10 -15 -5 0 -10 7 -10 15 0 8 5 15 10 15 6 0 10
-7 10 -15z m800 -5 c0 -4 -6 -10 -13 -13 -7 -3 -13 3 -13 13 0 10 6 16 13 13
7 -3 13 -9 13 -13z m-910 0 c0 -5 -5 -10 -11 -10 -5 0 -7 5 -4 10 3 6 8 10 11
10 2 0 4 -4 4 -10z m262 -12 c-12 -12 -35 -1 -27 12 3 5 13 6 21 3 10 -4 12
-9 6 -15z m113 13 c3 -5 2 -12 -3 -15 -5 -3 -9 1 -9 9 0 17 3 19 12 6z m785
-14 c12 -4 11 -6 -2 -6 -10 -1 -18 -7 -18 -13 0 -9 -3 -9 -9 1 -5 8 -7 21 -4
28 3 8 9 10 12 5 3 -5 13 -12 21 -15z m177 -7 c-1 -14 -5 -16 -13 -9 -7 6 -10
17 -7 25 7 19 22 8 20 -16z m-1206 7 c-8 -10 -7 -17 2 -26 9 -10 8 -11 -5 -6
-14 6 -16 2 -12 -18 2 -15 -1 -27 -10 -30 -21 -8 -11 62 11 79 23 17 28 18 14
1z m-194 -29 c-3 -7 -5 -2 -5 12 0 14 2 19 5 13 2 -7 2 -19 0 -25z m-26 5 c12
-15 12 -16 -4 -10 -10 4 -23 7 -28 7 -5 0 -9 5 -9 10 0 16 26 12 41 -7z m703
2 c-4 -8 -8 -15 -10 -15 -2 0 -4 7 -4 15 0 8 4 15 10 15 5 0 7 -7 4 -15z m76
0 c0 -8 -4 -15 -10 -15 -5 0 -10 7 -10 15 0 8 5 15 10 15 6 0 10 -7 10 -15z
m597 2 c0 -8 -6 -14 -14 -14 -9 0 -10 4 -2 14 6 7 12 13 14 13 1 0 2 -6 2 -13z
m-1467 -6 c0 -6 -4 -13 -10 -16 -5 -3 -10 1 -10 9 0 9 5 16 10 16 6 0 10 -4
10 -9z m153 -6 c-3 -9 -8 -14 -10 -11 -3 3 -2 9 2 15 9 16 15 13 8 -4z m1262
6 c-3 -5 1 -16 9 -24 13 -13 12 -16 -10 -25 -15 -7 -24 -8 -24 -2 0 6 5 10 11
10 6 0 8 7 5 16 -6 15 0 34 10 34 3 0 3 -4 -1 -9z m335 -23 c0 -12 -6 -9 -26
13 -19 22 -19 22 4 8 12 -8 22 -17 22 -21z m-2220 0 c0 -16 -3 -19 -11 -11 -6
6 -8 16 -5 22 11 17 16 13 16 -11z m724 -1 c4 -16 2 -16 -12 -5 -13 11 -15 11
-7 -2 4 -8 15 -23 23 -32 8 -10 12 -18 7 -18 -4 0 -2 -7 5 -15 16 -20 6 -19
-25 1 -24 16 -25 15 -26 -7 0 -13 -3 -18 -6 -11 -2 7 -26 22 -51 33 -26 12
-51 28 -55 35 -11 19 -27 18 -27 -2 0 -8 -4 -12 -10 -9 -5 3 -10 2 -10 -3 0
-6 7 -13 15 -16 12 -4 13 -10 6 -25 -8 -14 -7 -21 2 -24 7 -3 5 -6 -5 -6 -11
-1 -20 9 -24 23 -3 14 -12 27 -21 30 -10 4 -12 13 -8 27 4 13 2 25 -5 29 -11
7 6 6 97 -2 7 -1 15 -9 18 -18 3 -11 16 -17 35 -17 30 0 48 21 28 33 -7 5 -7
8 1 13 20 13 50 7 55 -12z m938 9 c6 4 8 2 4 -4 -3 -5 0 -12 6 -15 7 -2 10 -8
6 -12 -11 -11 -38 14 -37 34 0 10 2 12 6 3 2 -6 10 -9 15 -6z m-860 -42 c-8
-14 -9 -13 -9 10 0 18 3 24 9 18 7 -7 7 -16 0 -28z m1184 7 c-4 -6 -13 -11
-19 -11 -8 0 -7 3 2 9 8 5 10 14 6 22 -6 11 -5 11 5 2 7 -6 9 -16 6 -22z
m-504 12 c-6 -2 -10 -9 -6 -14 3 -5 0 -9 -5 -9 -6 0 -11 7 -11 15 0 8 8 15 18
14 10 0 12 -3 4 -6z m66 -24 c2 -23 2 -23 -13 -5 -18 24 -20 39 -2 34 6 -3 13
-15 15 -29z m167 22 c3 -5 2 -12 -3 -15 -5 -3 -9 1 -9 9 0 17 3 19 12 6z m223
-16 c-10 -23 -28 -34 -28 -18 0 7 31 43 36 43 2 0 -2 -11 -8 -25z m-1528 -7
c17 2 30 9 30 16 0 6 5 3 11 -7 8 -13 7 -22 -1 -32 -7 -9 -8 -15 0 -20 5 -3
10 -12 10 -18 -1 -13 -24 23 -25 37 0 14 -45 18 -45 3 0 -6 -7 -3 -15 7 -14
18 -20 15 -16 -8 1 -5 -5 -6 -14 -3 -8 4 -15 1 -15 -5 0 -6 -3 -8 -7 -4 -4 4
6 18 22 31 20 15 31 19 33 11 2 -8 14 -11 32 -8z m824 5 c3 -8 2 -12 -3 -8 -5
3 -11 0 -13 -7 -3 -7 -7 -3 -10 8 -6 23 18 30 26 7z m-744 -30 c0 -7 -4 -13
-10 -13 -5 0 -10 12 -10 28 0 21 2 24 10 12 5 -8 10 -21 10 -27z m485 7 c-4
-12 -9 -19 -12 -17 -3 3 -2 15 2 27 4 12 9 19 12 17 3 -3 2 -15 -2 -27z m337
8 c-7 -7 -12 -8 -12 -2 0 14 12 26 19 19 2 -3 -1 -11 -7 -17z m515 -15 c-3
-10 -5 -4 -5 12 0 17 2 24 5 18 2 -7 2 -21 0 -30z m-883 11 c9 -23 7 -31 -3
-15 -5 7 -14 10 -21 6 -8 -5 -1 -13 19 -26 17 -10 31 -21 31 -23 0 -14 -14
-36 -22 -36 -5 0 -7 4 -4 9 10 16 -5 40 -23 36 -18 -3 -21 14 -6 48 9 21 21
22 29 1z m660 -35 c-3 -5 -15 -9 -27 -9 -20 1 -20 2 -4 11 9 5 17 20 18 32 0
22 0 22 10 -1 5 -13 7 -28 3 -33z m-760 27 c-4 -11 0 -13 15 -9 26 7 27 -3 3
-16 -10 -5 -24 -6 -32 -1 -11 7 -11 11 -1 24 17 20 22 20 15 2z m877 0 c9 0
16 -6 16 -13 0 -8 -9 -10 -25 -6 -21 5 -23 3 -17 -16 4 -13 2 -21 -5 -21 -6 0
-8 5 -5 10 3 6 3 10 -2 10 -4 0 -13 11 -20 25 -11 24 -10 25 15 18 15 -4 34
-7 43 -7z m-551 0 c0 -2 -7 -6 -15 -10 -8 -3 -15 -1 -15 4 0 6 7 10 15 10 8 0
15 -2 15 -4z m-1177 -31 c-7 -21 -13 -19 -13 6 0 11 4 18 10 14 5 -3 7 -12 3
-20z m501 -38 c-6 -9 -4 -9 8 1 13 10 17 10 22 -3 3 -9 2 -13 -4 -10 -18 11
-10 -25 9 -42 25 -21 17 -47 -11 -32 -11 6 -25 9 -31 6 -7 -3 -12 6 -13 22 -1
14 -5 36 -9 49 -6 17 -3 22 11 23 11 0 14 3 6 6 -6 2 -9 9 -6 15 4 7 10 4 16
-6 5 -9 6 -22 2 -29z m179 21 c8 -28 -1 -41 -24 -35 -10 3 -19 1 -21 -4 -2 -6
-12 -2 -23 6 -17 14 -17 16 -2 11 9 -3 17 -1 17 3 0 5 -8 12 -17 17 -15 6 -13
8 12 14 48 12 52 11 58 -12z m1157 1 c0 -6 -4 -7 -10 -4 -5 3 -10 11 -10 16 0
6 5 7 10 4 6 -3 10 -11 10 -16z m134 7 c-3 -9 1 -13 12 -13 9 1 19 -5 22 -13
5 -13 3 -13 -11 -1 -10 7 -17 10 -17 5 0 -4 -5 -3 -11 3 -6 6 -8 16 -5 22 10
16 16 14 10 -3z m-1074 -2 c0 -8 -19 -13 -24 -6 -3 5 1 9 9 9 8 0 15 -2 15 -3z
m870 -4 c-20 -13 -33 -13 -25 0 3 6 14 10 23 10 15 0 15 -2 2 -10z m-1395 -10
c-3 -5 -12 -10 -18 -10 -7 0 -6 4 3 10 19 12 23 12 15 0z m1233 -3 c9 4 13 1
11 -6 -3 -7 -8 -12 -13 -11 -5 1 -12 -4 -17 -12 -6 -10 -11 -10 -21 0 -9 9 -9
12 1 12 8 0 11 6 6 18 -5 13 -3 14 6 5 6 -6 18 -9 27 -6z m-878 -7 c0 -5 -2
-10 -4 -10 -3 0 -8 5 -11 10 -3 6 -1 10 4 10 6 0 11 -4 11 -10z m106 -36 c-5
-19 0 -24 31 -35 l36 -12 -24 -14 -24 -14 28 6 c35 7 37 -16 2 -35 -13 -7 -22
-18 -18 -24 3 -6 0 -5 -8 2 -21 19 -41 15 -34 -8 4 -11 2 -20 -4 -20 -6 0 -11
6 -11 14 0 10 -7 13 -20 11 -11 -2 -18 0 -15 5 3 5 -5 18 -17 30 -23 21 -23
22 -2 18 22 -3 54 17 54 35 0 5 -9 0 -20 -13 -11 -13 -20 -19 -20 -13 0 5 14
22 31 37 23 20 28 31 20 39 -6 6 -11 17 -11 25 0 12 3 12 16 1 9 -8 13 -21 10
-35z m304 4 c0 -5 -5 -8 -11 -8 -5 0 -8 4 -4 9 3 5 1 12 -5 16 -5 3 -10 11
-10 18 0 12 29 -23 30 -35z m380 26 c0 -8 -4 -12 -10 -9 -5 3 -10 10 -10 16 0
5 5 9 10 9 6 0 10 -7 10 -16z m-1069 -4 c12 -7 19 -21 19 -40 0 -39 -17 -47
-18 -9 0 17 -9 37 -19 45 -21 16 -10 18 18 4z m919 -28 c-5 -2 -8 -7 -5 -12 3
-4 -1 -10 -8 -13 -8 -3 -11 5 -10 27 2 43 2 43 19 21 9 -12 11 -21 4 -23z
m-1008 6 c-7 -7 -12 -8 -12 -2 0 14 12 26 19 19 2 -3 -1 -11 -7 -17z m640 -8
c-3 -18 0 -30 7 -30 6 0 11 -4 11 -10 0 -5 -6 -10 -14 -10 -17 0 -27 68 -11
74 5 2 10 5 11 5 0 1 -1 -12 -4 -29z m439 16 c5 3 9 -2 9 -10 0 -9 -4 -16 -10
-16 -5 0 -10 2 -10 4 0 2 -2 10 -3 18 -2 7 -2 10 0 5 3 -4 9 -5 14 -1z m500
-9 c-10 -9 -11 -8 -5 6 3 10 9 15 12 12 3 -3 0 -11 -7 -18z m-1537 -2 c-4 -8
-10 -12 -15 -9 -14 8 -10 24 6 24 9 0 12 -6 9 -15z m302 6 c-3 -5 -15 -11 -26
-14 -17 -4 -19 -3 -9 9 12 15 44 20 35 5z m324 -13 c0 -16 -3 -19 -11 -11 -6
6 -8 16 -5 22 11 17 16 13 16 -11z m75 12 c3 -5 -1 -10 -10 -10 -9 0 -13 5
-10 10 3 6 8 10 10 10 2 0 7 -4 10 -10z m628 3 c-7 -2 -19 -2 -25 0 -7 3 -2 5
12 5 14 0 19 -2 13 -5z m-766 -35 c-3 -7 -5 -2 -5 12 0 14 2 19 5 13 2 -7 2
-19 0 -25z m-192 12 c-11 -5 -27 -9 -35 -9 -9 0 -8 4 5 9 11 5 27 9 35 9 9 0
8 -4 -5 -9z m1195 0 c0 -5 -2 -10 -4 -10 -3 0 -8 5 -11 10 -3 6 -1 10 4 10 6
0 11 -4 11 -10z m-1590 -26 c0 -8 -4 -12 -10 -9 -5 3 -10 13 -10 21 0 8 5 12
10 9 6 -3 10 -13 10 -21z m905 16 c3 -5 2 -10 -4 -10 -5 0 -13 5 -16 10 -3 6
-2 10 4 10 5 0 13 -4 16 -10z m345 -5 c0 4 5 3 11 -1 7 -4 7 -10 1 -16 -7 -7
-18 -3 -34 12 l-23 22 23 -11 c12 -6 22 -9 22 -6z m-308 -15 c-2 -8 3 -10 13
-7 17 7 20 -10 5 -33 -8 -12 -10 -12 -11 5 0 11 -7 0 -15 -25 -10 -32 -11 -47
-3 -55 8 -7 13 -6 16 3 6 14 33 16 33 2 0 -6 -3 -9 -7 -8 -5 2 -9 0 -10 -4 -7
-19 -2 -28 15 -28 11 0 13 -3 5 -8 -14 -9 -5 -26 17 -35 12 -4 11 -6 -2 -6
-10 -1 -18 -7 -19 -13 0 -7 -6 5 -12 26 -7 22 -18 41 -26 44 -8 3 -11 0 -7 -7
4 -6 3 -11 -3 -11 -5 0 -13 5 -16 10 -3 6 -13 10 -21 10 -8 0 -12 -4 -9 -10 3
-5 1 -10 -4 -10 -6 0 -11 5 -11 12 0 6 -10 2 -22 -9 -13 -12 -39 -24 -58 -28
-89 -18 -206 -48 -214 -56 -5 -4 2 -6 15 -3 21 4 22 3 4 -5 -14 -6 -23 -5 -30
4 -9 10 -18 9 -49 -6 -37 -18 -38 -18 -33 1 3 10 0 21 -7 23 -6 2 6 7 26 11
l36 7 -24 26 c-13 14 -24 31 -24 37 0 16 40 15 41 -1 1 -7 2 -18 3 -24 0 -7 9
-15 20 -19 24 -8 177 31 169 44 -4 5 1 7 10 3 10 -4 29 -2 44 4 19 7 29 7 31
0 2 -6 8 -11 13 -11 4 0 6 6 3 14 -3 9 3 17 15 21 12 3 21 13 21 20 0 20 21
30 30 15 6 -9 10 -6 15 9 4 12 2 28 -4 34 -5 7 -6 19 -2 26 7 10 10 10 16 1 6
-9 9 -9 16 1 5 8 3 17 -4 22 -8 6 -7 7 3 4 8 -2 14 -10 12 -17z m184 2 c1 -7
0 -8 -3 -2 -3 8 -11 6 -22 -4 -15 -14 -17 -13 -17 3 0 21 38 24 42 3z m-388
-4 c-2 -7 3 -12 11 -13 8 0 16 -6 19 -12 5 -17 -4 -16 -34 4 -19 12 -22 18
-12 24 17 11 18 11 16 -3z m872 2 c0 -5 -4 -10 -10 -10 -5 0 -10 5 -10 10 0 6
5 10 10 10 6 0 10 -4 10 -10z m-1006 -26 c3 -9 1 -12 -4 -9 -6 4 -10 -6 -10
-21 0 -38 -11 -24 -15 19 -2 26 1 34 10 31 8 -3 16 -12 19 -20z m423 6 c24
-18 24 -20 5 -20 -13 0 -22 -9 -26 -25 -5 -19 -13 -25 -34 -25 -25 1 -26 2 -8
15 10 7 15 18 12 24 -7 11 10 51 20 51 3 0 17 -9 31 -20z m173 -16 c0 -10 -5
-12 -12 -8 -10 6 -10 4 0 -8 9 -11 9 -22 3 -39 -5 -13 -10 -19 -10 -13 -1 5
-8 19 -16 30 -10 12 -8 4 4 -26 15 -33 17 -48 9 -58 -8 -9 -6 -16 8 -26 10 -8
16 -17 13 -21 -12 -12 -40 28 -38 54 4 41 -9 71 -28 64 -13 -5 -15 -2 -10 11
4 10 7 20 7 22 0 2 7 4 15 4 8 0 19 9 25 20 12 22 30 18 30 -6z m-1121 5 c9 5
36 5 61 1 44 -7 44 -7 18 -18 -23 -10 -156 -7 -166 3 -2 2 -1 8 2 14 4 6 18 6
37 1 18 -5 39 -6 48 -1z m478 -18 c-2 -31 -17 -32 -17 -2 0 16 8 31 16 31 2 0
2 -13 1 -29z m273 19 c0 -5 -2 -10 -4 -10 -3 0 -8 5 -11 10 -3 6 -1 10 4 10 6
0 11 -4 11 -10z m-150 -9 c0 -5 -7 -12 -16 -15 -14 -5 -15 -4 -4 9 14 17 20
19 20 6z m-335 -11 c3 -5 2 -10 -4 -10 -5 0 -13 5 -16 10 -3 6 -2 10 4 10 5 0
13 -4 16 -10z m737 -34 c9 6 9 9 0 12 -21 7 -13 20 13 20 26 0 33 -12 14 -23
-6 -4 -8 -13 -5 -21 3 -8 0 -14 -7 -14 -8 0 -6 -4 3 -10 13 -8 13 -10 1 -10
-11 0 -9 -4 5 -15 17 -12 20 -12 30 1 10 12 12 11 10 -10 -1 -21 -5 -24 -23
-20 -17 5 -21 2 -19 -13 3 -22 35 -30 47 -11 7 10 9 10 10 -2 1 -8 0 -23 -1
-34 -1 -10 3 -15 8 -12 6 3 12 0 15 -8 3 -8 -2 -16 -14 -19 -14 -4 -19 0 -19
14 0 11 -5 16 -14 13 -7 -3 -16 2 -20 11 -3 9 -10 14 -15 11 -5 -4 -12 12 -16
34 -4 22 -10 38 -14 35 -8 -5 -9 -2 -16 65 -4 36 -3 40 5 22 6 -15 14 -20 22
-16z m248 24 c0 -5 -4 -10 -10 -10 -5 0 -10 5 -10 10 0 6 5 10 10 10 6 0 10
-4 10 -10z m-1331 -47 c15 -11 15 -12 -1 -13 -9 0 -19 -6 -21 -12 -3 -8 -6 -5
-6 5 -1 10 -5 16 -10 12 -10 -6 -24 11 -27 33 -3 17 7 15 22 -5 12 -17 13 -16
15 7 1 21 2 22 6 5 3 -11 13 -25 22 -32z m100 31 c10 7 7 -32 -4 -41 -4 -5 -5
-2 -1 5 4 7 1 15 -8 18 -9 3 -12 12 -9 22 4 10 8 12 11 4 2 -7 7 -10 11 -8z
m116 -1 c6 -17 7 -17 21 1 16 23 18 17 4 -18 -5 -14 -14 -26 -20 -26 -6 0 -8
5 -5 10 8 12 -5 13 -24 1 -8 -5 -11 -16 -8 -24 7 -20 -44 -59 -59 -43 -15 17
-14 53 3 67 12 11 14 10 13 -2 -4 -28 0 -39 16 -39 11 0 14 5 10 16 -4 9 -2
22 4 29 8 10 7 15 -1 21 -9 5 -7 10 7 15 28 11 31 11 39 -8z m526 0 c12 -15
12 -16 -3 -11 -11 5 -18 0 -22 -15 -5 -20 -6 -20 -24 -4 -26 24 -32 21 -28
-11 1 -15 -3 -33 -11 -40 -15 -15 -16 -12 -4 20 6 16 4 27 -5 36 -8 7 -14 8
-14 3 0 -6 -7 -8 -15 -5 -8 4 -15 10 -15 15 0 4 7 5 17 2 11 -5 14 -3 8 6 -6
10 -3 11 13 2 15 -8 23 -8 28 0 5 8 10 6 16 -5 5 -9 14 -16 20 -16 6 0 9 3 5
6 -3 3 0 12 6 20 15 17 12 17 28 -3z m530 -13 c8 0 6 -5 -6 -13 -17 -13 -17
-14 6 -22 13 -4 28 -7 32 -6 5 1 6 -3 2 -8 -3 -6 -13 -7 -22 -4 -11 4 -14 3
-9 -5 5 -8 2 -10 -9 -5 -13 5 -14 7 -3 14 10 7 9 9 -4 9 -10 0 -16 8 -16 18 0
9 -3 26 -6 37 -7 19 -7 19 7 3 8 -10 20 -18 28 -18z m-751 0 c0 -5 -4 -10 -10
-10 -5 0 -10 5 -10 10 0 6 5 10 10 10 6 0 10 -4 10 -10z m-441 -41 l15 -24
-26 24 -27 23 5 -23 c5 -23 5 -23 -10 -5 -13 16 -13 22 -3 28 17 11 28 6 46
-23z m676 2 c-9 -16 -25 -3 -18 15 4 10 9 12 15 6 6 -6 7 -15 3 -21z m451 -8
c-11 -11 -19 6 -11 24 8 17 8 17 12 0 3 -10 2 -21 -1 -24z m132 1 c-4 -3 -12
5 -18 18 -12 22 -12 22 6 6 10 -10 15 -20 12 -24z m42 4 c-13 -10 -25 -16 -28
-13 -8 8 17 32 34 32 14 0 12 -4 -6 -19z m-1545 2 c3 -5 2 -10 -4 -10 -5 0
-13 5 -16 10 -3 6 -2 10 4 10 5 0 13 -4 16 -10z m85 -11 c-7 -11 -14 -18 -17
-15 -8 8 5 36 17 36 7 0 7 -6 0 -21z m483 -9 c-10 -9 -20 -16 -22 -14 -2 2
-11 -2 -19 -9 -13 -11 -14 -9 -2 10 8 12 17 20 21 17 4 -2 10 3 13 12 3 8 11
12 17 9 7 -5 4 -13 -8 -25z m197 26 c0 -3 -4 -8 -10 -11 -5 -3 -10 -1 -10 4 0
6 5 11 10 11 6 0 10 -2 10 -4z m440 -11 c7 -9 8 -15 2 -15 -5 0 -12 7 -16 15
-3 8 -4 15 -2 15 2 0 9 -7 16 -15z m-1160 -20 c0 -8 -4 -17 -10 -20 -6 -4 -7
1 -3 11 4 12 3 15 -5 10 -7 -4 -12 -1 -12 8 0 10 6 13 15 10 8 -4 15 -12 15
-19z m120 5 c0 -11 -4 -20 -9 -20 -5 0 -7 9 -4 20 3 11 7 20 9 20 2 0 4 -9 4
-20z m240 5 c0 -20 -12 -25 -26 -10 -18 18 -18 21 6 21 11 0 20 -5 20 -11z
m45 -11 c-19 -19 -24 -18 -18 5 3 12 11 17 19 14 11 -4 11 -7 -1 -19z m732
-16 c-3 -7 -5 -2 -5 12 0 14 2 19 5 13 2 -7 2 -19 0 -25z m315 14 c-8 -5 -10
-16 -6 -27 5 -13 4 -16 -4 -11 -19 11 -14 46 6 46 12 0 14 -2 4 -8z m195 2
c-3 -3 -12 -4 -19 -1 -8 3 -5 6 6 6 11 1 17 -2 13 -5z m-1195 -26 c-7 -7 -12
-8 -12 -2 0 14 12 26 19 19 2 -3 -1 -11 -7 -17z m283 12 c-3 -5 -10 -10 -16
-10 -5 0 -9 5 -9 10 0 6 7 10 16 10 8 0 12 -4 9 -10z m642 4 c-3 -3 -12 -4
-19 -1 -8 3 -5 6 6 6 11 1 17 -2 13 -5z m-1052 -39 c-3 -27 0 -35 11 -35 9 0
12 5 8 12 -5 7 0 9 14 6 19 -5 20 -4 10 15 -7 14 -13 17 -16 9 -2 -6 -8 -9
-14 -6 -15 10 11 22 33 17 25 -7 25 -43 0 -50 -11 -3 -21 -14 -24 -25 -4 -14
-2 -18 9 -14 8 3 14 -1 14 -8 0 -10 -7 -12 -22 -9 -23 5 -23 5 -3 -10 18 -14
15 -15 -38 -14 -31 1 -57 5 -57 10 0 5 -7 7 -15 3 -8 -3 -15 -1 -15 4 0 6 -10
9 -22 9 -17 -1 -19 -2 -5 -6 9 -2 17 -12 16 -21 0 -11 -2 -12 -6 -4 -2 6 -13
12 -23 12 -23 0 -35 17 -18 22 7 3 -6 8 -30 12 -24 3 -48 3 -54 0 -7 -4 -8 -2
-4 4 5 8 -2 12 -18 12 -14 0 -26 5 -26 10 0 6 -7 10 -15 10 -8 0 -15 9 -15 20
0 13 7 20 20 20 11 0 20 5 20 11 0 5 5 7 10 4 6 -4 8 -10 5 -15 -3 -4 11 -10
29 -12 19 -2 33 -1 31 2 -8 14 11 29 25 20 13 -9 13 -10 0 -11 -8 0 -2 -5 14
-9 31 -10 71 4 61 21 -9 14 2 11 19 -6 14 -14 18 -14 41 1 20 13 25 13 25 3 1
-10 4 -8 11 4 15 26 19 21 14 -18z m745 14 c0 -15 -4 -19 -16 -15 -9 3 -20 6
-25 6 -5 0 -9 7 -9 15 0 9 9 15 25 15 19 0 25 -5 25 -21z m430 11 c0 -5 -2
-10 -4 -10 -3 0 -8 5 -11 10 -3 6 -1 10 4 10 6 0 11 -4 11 -10z m-1400 -10 c0
-5 -7 -10 -16 -10 -8 0 -12 5 -9 10 3 6 10 10 16 10 5 0 9 -4 9 -10z m397 -12
c-3 -8 -6 -5 -6 6 -1 11 2 17 5 13 3 -3 4 -12 1 -19z m845 -10 c-8 -8 -9 -4
-5 13 4 13 8 18 11 10 2 -7 -1 -18 -6 -23z m-1378 -22 l-24 -43 25 5 c14 2 22
8 19 13 -3 5 0 9 5 9 6 0 11 -5 11 -11 0 -5 4 -8 8 -5 4 2 9 -7 10 -21 3 -33
11 -45 25 -36 7 4 5 -1 -3 -11 -14 -18 -15 -17 -28 3 -18 26 -28 27 -28 2 0
-11 3 -18 6 -16 3 2 12 0 20 -6 12 -7 11 -9 -5 -9 -19 -1 -19 -2 2 -10 12 -5
24 -21 28 -39 4 -17 11 -29 16 -25 5 3 7 9 4 14 -2 4 22 1 55 -7 50 -13 57
-17 45 -29 -18 -18 -39 -18 -143 5 -48 11 -110 22 -138 25 -63 6 -147 27 -154
37 -4 5 -23 10 -43 11 -37 3 -51 16 -39 35 4 6 32 12 62 14 30 2 61 10 68 17
16 15 29 15 37 2 4 -6 -1 -7 -12 -3 -14 5 -15 3 -6 -7 15 -16 36 -3 29 19 -5
14 -5 14 6 1 18 -22 47 -13 54 16 3 13 11 24 16 24 6 0 8 -7 4 -15 -4 -10 1
-15 14 -15 11 0 20 5 20 11 0 5 -5 7 -11 3 -15 -9 31 57 51 73 8 7 16 13 17
13 1 0 -9 -20 -23 -44z m574 37 c-28 -7 -10 -32 20 -27 l26 5 -19 -22 c-11
-13 -29 -32 -40 -43 -31 -32 -52 -61 -37 -52 6 4 12 2 12 -3 0 -6 -7 -11 -15
-11 -8 0 -15 -4 -15 -10 0 -5 -7 -7 -17 -3 -13 5 -15 2 -11 -15 8 -27 7 -27
-25 2 -42 39 -40 92 3 107 28 10 43 39 20 39 -5 0 -10 5 -10 11 0 6 8 9 18 7
10 -2 17 -12 16 -25 -1 -17 3 -20 17 -15 10 4 19 12 19 17 4 24 22 45 38 44
16 -1 16 -2 0 -6z m1110 -18 c-3 -3 -9 2 -12 12 -6 14 -5 15 5 6 7 -7 10 -15
7 -18z m-130 1 c-7 -8 -15 -12 -17 -11 -5 6 10 25 20 25 5 0 4 -6 -3 -14z
m-151 -14 c-19 -21 -10 -38 20 -36 12 1 20 -3 17 -8 -3 -4 -10 -6 -16 -2 -5 3
-9 -2 -8 -12 1 -11 2 -30 1 -44 -1 -21 -3 -23 -14 -10 -13 17 -29 22 -69 24
-36 1 -35 11 2 26 16 7 27 16 24 21 -3 5 2 6 11 3 11 -5 16 -2 14 7 -3 20 11
49 24 49 5 0 3 -8 -6 -18z m173 -2 c0 -5 -4 -10 -10 -10 -5 0 -10 5 -10 10 0
6 5 10 10 10 6 0 10 -4 10 -10z m-1620 -4 c0 -2 -7 -6 -15 -10 -8 -3 -15 -1
-15 4 0 6 7 10 15 10 8 0 15 -2 15 -4z m1285 -36 c-6 -20 -7 -21 -22 -3 -8 10
-12 13 -9 7 6 -12 -18 -27 -28 -17 -6 7 19 33 32 33 6 0 13 -6 15 -12 3 -7 6
-4 6 6 1 11 4 17 7 13 3 -3 3 -15 -1 -27z m-633 -2 c-7 -7 -12 -8 -12 -2 0 14
12 26 19 19 2 -3 -1 -11 -7 -17z m272 10 c-3 -4 -12 -8 -20 -8 -8 0 -13 4 -10
8 3 5 12 9 20 9 8 0 13 -4 10 -9z m-211 -12 c3 -8 0 -17 -7 -19 -10 -4 -12 1
-9 14 6 23 9 24 16 5z m1021 6 c2 -4 1 -14 -5 -22 -5 -8 -9 -13 -10 -10 0 3
-2 13 -4 23 -3 17 10 24 19 9z m133 -14 c-3 -8 -6 -5 -6 6 -1 11 2 17 5 13 3
-3 4 -12 1 -19z m-1037 2 c0 -5 -2 -10 -4 -10 -3 0 -8 5 -11 10 -3 6 -1 10 4
10 6 0 11 -4 11 -10z m1117 -15 c-4 -8 -12 -15 -19 -15 -9 0 -8 3 2 10 8 5 11
10 7 10 -5 0 -5 5 -2 11 10 15 19 3 12 -16z m-997 8 c0 -5 -4 -14 -9 -22 -11
-17 -32 -5 -24 14 5 15 33 21 33 8z m258 -30 c-14 -18 -19 -12 -11 16 4 16 8
19 14 10 4 -7 3 -19 -3 -26z m135 2 c4 -25 4 -25 -20 -10 -13 9 -28 13 -33 10
-6 -3 -10 -1 -10 6 0 6 8 9 20 6 11 -3 20 -1 20 4 0 20 18 7 23 -16z m407 4
c0 -11 -4 -17 -10 -14 -5 3 -10 -4 -10 -16 0 -17 3 -19 14 -10 11 9 16 9 22
-1 4 -7 4 -10 -1 -6 -4 4 -13 3 -20 -2 -8 -6 -18 -5 -31 6 -10 8 -12 12 -4 8
13 -7 13 -5 1 9 -12 15 -11 17 3 17 9 0 19 7 22 15 8 21 14 19 14 -6z m80 4
c7 7 10 8 8 2 -3 -5 -11 -25 -18 -42 -8 -18 -21 -33 -28 -33 -12 0 -11 5 2 25
13 20 14 30 6 48 -10 20 -10 20 3 5 11 -14 16 -15 27 -5z m-245 -12 c-3 -6
-11 -11 -17 -11 -6 0 -6 6 2 15 14 17 26 13 15 -4z m325 -2 c0 -5 -9 -18 -19
-28 -11 -11 -17 -22 -13 -25 3 -3 -2 -6 -11 -6 -23 0 -21 17 2 25 20 6 37 35
21 35 -6 0 -10 4 -10 10 0 5 7 7 15 4 8 -4 15 -10 15 -15z m-1730 1 c0 -5 -5
-10 -11 -10 -5 0 -7 5 -4 10 3 6 8 10 11 10 2 0 4 -4 4 -10z m843 -5 c-3 -9
-8 -14 -10 -11 -3 3 -2 9 2 15 9 16 15 13 8 -4z m967 5 c0 -5 -2 -10 -4 -10
-3 0 -8 5 -11 10 -3 6 -1 10 4 10 6 0 11 -4 11 -10z m-1130 -4 c0 -3 -4 -8
-10 -11 -5 -3 -10 -1 -10 4 0 6 5 11 10 11 6 0 10 -2 10 -4z m280 -6 c0 -5 -5
-10 -11 -10 -5 0 -7 5 -4 10 3 6 8 10 11 10 2 0 4 -4 4 -10z m-172 -42 c-8
-22 -13 -26 -19 -16 -12 19 -11 30 2 22 8 -4 9 0 4 15 -5 16 -3 20 9 15 12 -4
12 -11 4 -36z m87 -8 c1 -22 -2 -40 -7 -40 -4 0 -8 -7 -8 -15 0 -8 -9 -15 -20
-15 -13 0 -18 -5 -14 -15 4 -8 13 -15 21 -15 8 0 12 -4 8 -10 -4 -6 -15 -5
-30 2 -17 8 -24 18 -23 35 2 14 7 22 15 19 7 -3 13 -1 13 5 0 6 4 7 10 4 6 -4
7 1 3 11 -4 11 -2 15 4 11 6 -4 11 -1 10 6 -1 36 4 69 10 64 3 -4 7 -25 8 -47z
m111 23 c-10 -10 -19 5 -10 18 6 11 8 11 12 0 2 -7 1 -15 -2 -18z m339 -3 c2
-22 -10 -26 -21 -8 -4 6 -2 14 4 16 7 2 9 9 5 15 -3 7 -2 9 2 4 5 -4 9 -16 10
-27z m-1371 5 c-6 -16 -24 -21 -24 -7 0 11 11 22 21 22 5 0 6 -7 3 -15z m756
-7 c0 -11 -28 -10 -35 1 -3 6 4 9 15 8 11 -1 20 -5 20 -9z m194 -4 c3 -8 2
-12 -4 -9 -6 3 -10 10 -10 16 0 14 7 11 14 -7z m59 -3 c3 -13 1 -18 -9 -14 -7
2 -10 11 -7 19 7 19 10 18 16 -5z m284 13 c-3 -3 -12 -4 -19 -1 -8 3 -5 6 6 6
11 1 17 -2 13 -5z m-1167 -20 c0 -8 5 -12 10 -9 6 3 10 4 10 1 0 -16 -21 -13
-30 4 -7 13 -7 20 0 20 5 0 10 -7 10 -16z m472 0 c-12 -8 -20 -20 -17 -25 9
-13 -9 -11 -23 3 -9 9 -6 14 11 24 33 18 56 17 29 -2z m467 -7 c0 -9 -2 -8 -6
1 -2 6 -10 9 -15 6 -7 -4 -8 -2 -4 5 9 13 26 5 25 -12z m81 13 c0 -4 -7 -7
-15 -6 -23 3 -26 12 -5 13 11 1 20 -2 20 -7z m50 2 c0 -5 -7 -9 -15 -9 -8 0
-12 4 -9 9 3 4 9 8 15 8 5 0 9 -4 9 -8z m-691 -35 c0 -21 -1 -21 -9 -2 -12 28
-12 37 0 30 6 -3 10 -16 9 -28z m1071 23 c0 -5 -7 -7 -15 -4 -8 4 -15 8 -15
10 0 2 7 4 15 4 8 0 15 -4 15 -10z m43 -15 c-3 -9 -8 -14 -10 -11 -3 3 -2 9 2
15 9 16 15 13 8 -4z m-623 1 c0 -2 -7 -7 -16 -10 -8 -3 -12 -2 -9 4 6 10 25
14 25 6z m190 -6 c0 -5 -2 -10 -4 -10 -3 0 -8 5 -11 10 -3 6 -1 10 4 10 6 0
11 -4 11 -10z m344 1 c-2 -2 1 -10 7 -17 8 -10 2 -9 -20 2 -17 9 -31 16 -31
17 0 1 11 2 24 2 13 0 22 -2 20 -4z m236 -12 c13 -23 13 -39 0 -39 -5 0 -7 7
-4 15 8 19 -23 32 -39 16 -9 -9 -8 -11 6 -6 18 8 20 5 11 -19 -7 -19 -27 -2
-36 31 -5 19 -2 21 24 21 17 -1 33 -8 38 -19z m-1393 5 c-3 -3 -12 -4 -19 -1
-8 3 -5 6 6 6 11 1 17 -2 13 -5z m343 2 c0 -11 -19 -15 -25 -6 -3 5 1 10 9 10
9 0 16 -2 16 -4z m77 -16 c2 -17 -1 -18 -18 -7 -18 11 -18 12 -1 19 9 3 17 7
17 7 1 1 1 -8 2 -19z m600 -2 c-3 -8 -6 -5 -6 6 -1 11 2 17 5 13 3 -3 4 -12 1
-19z m-1180 -3 c0 -8 -4 -12 -9 -9 -4 3 -8 9 -8 15 0 5 4 9 8 9 5 0 9 -7 9
-15z m233 -15 c26 0 33 -36 6 -38 -30 -2 -44 15 -38 46 4 19 7 22 10 10 2 -10
12 -18 22 -18z m530 -3 c0 -8 -3 -8 -9 1 -4 8 -12 13 -17 12 -5 -1 -10 4 -12
10 -3 9 1 9 17 1 11 -7 21 -17 21 -24z m140 -12 c0 -23 -28 -37 -60 -30 -39 9
-34 26 11 38 19 5 28 12 22 14 -7 3 -13 9 -13 15 0 6 9 3 20 -7 11 -10 20 -24
20 -30z m52 27 c6 -21 -29 -25 -37 -4 -2 7 0 10 5 7 6 -3 10 -1 10 4 0 18 17
12 22 -7z m132 2 c3 -8 2 -12 -4 -9 -6 3 -10 10 -10 16 0 14 7 11 14 -7z
m-934 -4 c0 -5 -2 -10 -4 -10 -3 0 -8 5 -11 10 -3 6 -1 10 4 10 6 0 11 -4 11
-10z m230 6 c0 -3 -4 -8 -10 -11 -5 -3 -10 -1 -10 4 0 6 5 11 10 11 6 0 10 -2
10 -4z m50 -28 c0 -6 -7 -5 -15 2 -8 7 -15 17 -15 22 0 6 7 5 15 -2 8 -7 15
-17 15 -22z m-64 -14 c-9 -9 -12 -8 -18 5 -11 27 -9 32 11 19 14 -8 16 -14 7
-24z m639 22 c18 -18 0 -37 -30 -32 -11 2 -27 -1 -35 -7 -8 -6 -1 3 15 20 36
37 33 36 50 19z m310 4 c3 -5 1 -10 -4 -10 -6 0 -11 5 -11 10 0 6 2 10 4 10 3
0 8 -4 11 -10z m-1734 -23 c-10 -9 -11 -8 -5 6 3 10 9 15 12 12 3 -3 0 -11 -7
-18z m114 3 c3 -5 -1 -10 -9 -10 -9 0 -19 0 -23 -1 -4 0 -9 4 -11 10 -5 14 35
14 43 1z m265 5 c0 -21 -33 -66 -45 -61 -8 3 -16 1 -19 -5 -2 -5 -3 -4 -1 3 1
7 8 12 14 10 7 -1 9 3 5 9 -3 6 0 15 7 20 10 6 11 9 2 9 -7 0 -13 5 -13 10 0
6 11 10 25 10 14 0 25 -2 25 -5z m1420 -21 c0 -8 -4 -12 -10 -9 -5 3 -10 13
-10 21 0 8 5 12 10 9 6 -3 10 -13 10 -21z m40 11 c0 -9 -6 -12 -16 -8 -13 5
-13 7 -2 14 17 11 18 11 18 -6z m70 5 c0 -5 -2 -10 -4 -10 -3 0 -8 5 -11 10
-3 6 -1 10 4 10 6 0 11 -4 11 -10z m-1497 -17 c-4 -11 -3 -14 5 -9 8 5 10 2 5
-9 -3 -10 -1 -20 4 -24 6 -3 7 -14 2 -26 -7 -19 -8 -19 -8 3 -1 12 -5 22 -11
22 -5 0 -9 3 -9 8 4 21 -2 32 -13 27 -7 -4 -4 1 6 9 25 20 27 20 19 -1z m624
-29 c-8 -8 -37 20 -37 36 0 6 10 2 22 -10 12 -11 19 -23 15 -26z m571 16 c-7
-11 -14 -17 -17 -15 -2 3 1 11 7 18 7 8 8 18 4 22 -4 5 -1 5 5 1 10 -5 10 -11
1 -26z m547 20 c3 -5 1 -10 -4 -10 -6 0 -11 5 -11 10 0 6 2 10 4 10 3 0 8 -4
11 -10z m-1970 -10 c3 -5 1 -10 -4 -10 -6 0 -11 5 -11 10 0 6 2 10 4 10 3 0 8
-4 11 -10z m355 0 c0 -4 12 -12 26 -19 15 -6 24 -14 21 -17 -3 -3 -16 2 -29
10 -14 9 -27 14 -30 11 -3 -3 -8 0 -11 8 -3 8 1 14 9 14 8 0 14 -3 14 -7z
m320 6 c0 -2 -8 -10 -17 -17 -16 -13 -17 -12 -4 4 13 16 21 21 21 13z m102 -8
c-9 -9 -7 -14 6 -24 16 -12 15 -13 -6 -14 -18 0 -22 -4 -17 -19 3 -11 0 -21
-7 -24 -20 -7 -19 65 1 80 20 16 39 17 23 1z m-480 -16 c-7 -2 -12 -8 -12 -13
0 -6 6 -7 13 -4 6 4 2 -3 -11 -14 -14 -12 -21 -26 -16 -33 4 -8 3 -10 -2 -5
-12 12 -12 66 1 64 6 -1 9 3 8 10 -2 8 4 10 14 6 11 -4 13 -8 5 -11z m413 8
c3 -5 1 -10 -4 -10 -6 0 -11 5 -11 10 0 6 2 10 4 10 3 0 8 -4 11 -10z m-223
-16 c-16 -12 -15 -13 5 -14 39 0 33 -16 -7 -16 -29 -1 -40 4 -43 17 -6 23 -1
28 34 27 26 -1 27 -2 11 -14z m778 6 c0 -5 -5 -10 -11 -10 -5 0 -7 5 -4 10 3
6 8 10 11 10 2 0 4 -4 4 -10z m267 -7 c0 -10 -5 -24 -11 -32 -9 -12 -8 -13 6
-8 10 3 19 3 22 -2 3 -4 -15 -7 -39 -7 -35 0 -42 3 -34 12 6 7 8 19 4 26 -4 7
0 5 8 -5 12 -14 16 -15 25 -4 9 10 8 17 0 25 -9 9 -8 12 3 12 9 0 16 -8 16
-17z m168 7 c3 -6 -1 -7 -9 -4 -18 7 -21 14 -7 14 6 0 13 -4 16 -10z m88 3
c-7 -2 -21 -2 -30 0 -10 3 -4 5 12 5 17 0 24 -2 18 -5z m-1203 -26 c0 -1 -11
-3 -25 -3 -24 -2 -32 6 -19 19 6 5 44 -9 44 -16z m50 2 c0 -5 4 -8 9 -4 5 3
13 0 17 -6 4 -7 3 -9 -4 -5 -6 3 -14 1 -18 -5 -4 -8 -9 -7 -15 2 -12 19 -11
29 1 29 6 0 10 -5 10 -11z m310 7 c0 -9 -30 -14 -35 -6 -4 6 3 10 14 10 12 0
21 -2 21 -4z m695 -6 c3 -6 -1 -7 -9 -4 -18 7 -21 14 -7 14 6 0 13 -4 16 -10z
m132 -16 c-2 -2 -12 -1 -22 3 -18 6 -18 7 1 13 17 7 33 -5 21 -16z m-1397 6
c0 -5 -2 -10 -4 -10 -3 0 -8 5 -11 10 -3 6 -1 10 4 10 6 0 11 -4 11 -10z m328
-22 c-7 -19 -21 -12 -23 9 -1 18 1 20 12 11 8 -6 12 -15 11 -20z m147 22 c3
-6 -1 -7 -9 -4 -18 7 -21 14 -7 14 6 0 13 -4 16 -10z m309 -6 c3 -8 2 -12 -4
-9 -6 3 -10 10 -10 16 0 14 7 11 14 -7z m-1029 -12 c-3 -3 -11 0 -18 7 -9 10
-8 11 6 5 10 -3 15 -9 12 -12z m176 -10 c-9 -3 -9 -7 0 -18 10 -12 9 -13 -5
-8 -19 7 -21 25 -4 42 10 10 14 10 17 0 2 -6 -1 -14 -8 -16z m424 18 c3 -5 1
-10 -4 -10 -6 0 -11 5 -11 10 0 6 2 10 4 10 3 0 8 -4 11 -10z m-230 -14 c7 3
16 0 20 -6 6 -9 9 -9 15 0 10 16 56 5 64 -15 4 -11 0 -15 -12 -13 -9 2 -16 -3
-14 -9 1 -7 -2 -13 -6 -13 -4 0 -14 6 -21 13 -11 10 -12 9 -6 -3 8 -13 7 -13
-8 -1 -9 7 -17 10 -17 6 0 -4 -9 4 -20 18 -11 14 -20 29 -19 34 0 4 3 3 5 -4
3 -7 11 -10 19 -7z m387 -18 c-7 -7 -12 -8 -12 -2 0 14 12 26 19 19 2 -3 -1
-11 -7 -17z m568 12 c0 -5 8 -10 17 -10 9 0 14 -3 10 -6 -8 -8 -47 5 -47 17 0
5 5 9 10 9 6 0 10 -4 10 -10z m-1340 -9 c0 -6 -4 -13 -10 -16 -5 -3 -10 1 -10
9 0 9 5 16 10 16 6 0 10 -4 10 -9z m265 -1 c-3 -5 -12 -10 -18 -10 -7 0 -6 4
3 10 19 12 23 12 15 0z m365 -15 c0 5 3 6 6 2 7 -6 -19 -37 -31 -37 -4 0 -5 9
-2 20 3 11 1 20 -4 20 -5 0 -9 5 -9 12 0 6 9 3 20 -7 11 -10 20 -14 20 -10z
m880 10 c-7 -9 -15 -13 -17 -11 -7 7 7 26 19 26 6 0 6 -6 -2 -15z m-1472 -4
c11 -7 10 -9 -3 -14 -9 -4 -14 -3 -10 2 3 5 -1 12 -7 14 -7 3 -8 6 -3 6 6 0
16 -3 23 -8z m52 -6 c0 -8 -4 -15 -10 -15 -5 0 -7 7 -4 15 4 8 8 15 10 15 2 0
4 -7 4 -15z m233 -17 c-8 -14 -19 -8 -20 12 -1 16 1 17 12 7 7 -6 11 -15 8
-19z m227 28 c0 -2 -7 -7 -16 -10 -8 -3 -12 -2 -9 4 6 10 25 14 25 6z m574
-26 c-6 -6 -10 -2 -11 12 -2 16 1 18 10 9 7 -7 8 -14 1 -21z m146 24 c0 -10
-28 -34 -41 -34 -8 0 -5 7 6 20 17 19 35 26 35 14z m-1377 -11 c4 -3 1 -13 -5
-21 -11 -13 -8 -14 23 -11 33 4 34 3 25 -18 -6 -12 -22 -24 -36 -26 -23 -3
-23 -4 -5 -11 11 -4 28 -12 37 -17 12 -6 20 -4 27 9 6 9 11 12 11 5 0 -6 -5
-15 -10 -18 -6 -4 -8 -15 -5 -26 5 -14 3 -17 -9 -13 -9 3 -16 9 -16 13 0 4 -6
8 -12 8 -7 0 -35 5 -63 11 -27 6 -71 14 -97 17 -36 5 -48 10 -48 23 0 15 2 15
10 2 8 -13 10 -12 10 3 0 13 9 17 39 17 22 0 42 4 46 10 3 5 13 7 23 4 13 -5
14 -4 3 4 -10 7 -8 13 10 26 26 18 32 19 42 9z m1309 -10 c-1 -4 7 -17 16 -27
13 -15 13 -17 2 -11 -8 5 -28 10 -43 11 -24 2 -26 0 -16 -12 7 -8 8 -14 3 -13
-20 3 -53 -14 -48 -25 3 -6 -2 -2 -10 8 -15 18 -17 18 -34 3 -12 -11 -22 -13
-32 -6 -12 7 -11 10 8 15 12 4 22 10 22 15 0 5 7 9 15 9 8 0 15 -4 15 -10 0
-5 7 -10 16 -10 8 0 12 4 9 10 -3 6 1 7 10 4 10 -4 15 -2 13 7 -2 8 5 14 17
14 11 0 21 8 23 18 4 18 14 18 14 0z m-446 -19 c-19 -18 -32 -18 -40 2 -4 12
-1 14 14 9 12 -4 20 -2 20 5 0 6 5 8 10 5 6 -4 5 -12 -4 -21z m200 10 c-9 -8
-14 -19 -11 -24 3 -5 -2 -7 -10 -6 -9 1 -15 5 -15 9 0 4 3 6 6 5 3 -2 10 5 15
15 6 9 15 17 20 17 6 0 3 -7 -5 -16z m-964 -27 c-3 -12 -7 -16 -10 -9 -2 7 -8
10 -13 6 -5 -3 -9 4 -9 14 0 15 5 19 19 15 13 -3 17 -11 13 -26z m292 18 c-4
-8 -10 -15 -14 -15 -4 0 -7 -8 -6 -17 0 -10 -7 -19 -19 -21 -20 -3 -20 -3 -1
13 11 8 16 15 11 15 -4 0 0 9 10 20 22 24 26 25 19 5z m1020 -2 c-6 -2 -9 -16
-7 -31 3 -27 3 -27 -7 -3 -10 24 5 60 19 45 3 -4 1 -9 -5 -11z m130 2 c10 -8
23 -12 27 -9 5 3 6 -2 3 -10 -7 -19 -24 -21 -24 -3 0 8 -3 7 -9 -3 -6 -8 -7
-18 -5 -22 3 -4 1 -8 -4 -8 -10 0 -22 23 -22 41 0 6 6 7 13 3 8 -5 8 -2 -2 9
-16 21 -3 22 23 2z m-1354 -5 c0 -5 -5 -10 -11 -10 -5 0 -7 5 -4 10 3 6 8 10
11 10 2 0 4 -4 4 -10z m120 6 c0 -3 -4 -8 -10 -11 -5 -3 -10 -1 -10 4 0 6 5
11 10 11 6 0 10 -2 10 -4z m305 -36 c-4 -33 10 -41 20 -11 7 22 37 33 56 19
11 -8 10 -9 -3 -4 -10 3 -18 1 -18 -5 0 -6 -4 -7 -10 -4 -5 3 -15 -5 -22 -19
-12 -29 -19 -31 -35 -15 -8 8 -8 20 -1 40 13 37 18 37 13 -1z m235 6 c0 -3 -4
-8 -10 -11 -5 -3 -10 -1 -10 4 0 6 5 11 10 11 6 0 10 -2 10 -4z m202 -20 c7 4
8 2 4 -4 -3 -6 2 -15 11 -21 14 -7 15 -13 6 -22 -15 -15 -34 -3 -26 19 5 14 4
15 -8 4 -8 -7 -14 -18 -14 -25 0 -7 -7 -12 -15 -13 -38 -3 -42 -5 -37 -23 7
-30 -7 -45 -30 -32 -11 5 -23 8 -25 5 -3 -3 -8 2 -11 10 -4 11 -1 13 11 9 14
-5 15 -3 5 7 -10 11 -15 11 -29 -1 -10 -8 -15 -9 -11 -3 4 7 -4 11 -23 10 -17
-1 -30 -3 -30 -6 0 -3 -8 -6 -19 -6 -13 0 -17 6 -13 19 3 10 10 16 18 13 8 -3
14 -1 14 4 0 9 33 22 65 25 12 1 19 9 19 19 -1 9 3 15 10 13 6 -2 10 -12 10
-21 -3 -25 31 -19 46 9 7 13 17 22 22 19 4 -3 8 0 8 6 0 7 7 5 16 -4 8 -9 20
-13 26 -10z m327 -5 c-6 -2 -15 3 -20 10 -7 12 -9 12 -9 0 0 -8 -3 -12 -6 -8
-14 14 8 26 27 14 11 -7 14 -14 8 -16z m88 -1 c-1 -11 -5 -20 -9 -20 -10 0
-10 4 -2 24 8 22 13 20 11 -4z m136 5 c-3 -9 -8 -14 -10 -11 -3 3 -2 9 2 15 9
16 15 13 8 -4z m80 0 c4 -8 2 -17 -3 -20 -6 -4 -10 3 -10 14 0 25 6 27 13 6z
m-1506 -32 c-3 -10 -5 -4 -5 12 0 17 2 24 5 18 2 -7 2 -21 0 -30z m568 -33 c0
-55 -1 -58 -17 -43 -13 12 -15 20 -7 34 11 22 3 43 -12 33 -6 -3 -8 -13 -4
-21 4 -13 3 -14 -10 -3 -16 13 -21 35 -6 26 5 -3 16 6 26 20 23 35 30 23 30
-46z m-330 49 c11 -16 1 -19 -13 -3 -7 8 -8 14 -3 14 5 0 13 -5 16 -11z m1099
-18 c-7 -8 -35 9 -29 19 4 6 11 5 20 -3 7 -6 11 -14 9 -16z m56 14 c11 -13 10
-14 -4 -9 -9 3 -16 10 -16 15 0 13 6 11 20 -6z m-1431 -9 c11 -14 6 -15 -27
-7 -4 1 8 21 12 21 2 0 9 -6 15 -14z m138 -8 c-3 -8 -6 -5 -6 6 -1 11 2 17 5
13 3 -3 4 -12 1 -19z m286 -4 c12 -7 15 -14 8 -19 -16 -9 -13 -25 5 -25 8 0
12 -4 9 -10 -3 -5 -1 -10 5 -10 7 0 3 -15 -10 -37 -12 -21 -15 -29 -6 -19 9
11 16 15 16 9 0 -6 7 -13 15 -17 13 -4 13 -2 5 14 -7 12 -7 21 0 25 5 3 10 2
10 -3 0 -5 9 -12 20 -15 34 -9 47 45 16 65 -8 5 -8 10 1 19 8 8 13 6 18 -10 3
-11 20 -32 36 -45 17 -15 28 -31 24 -38 -4 -7 1 -4 9 6 16 20 21 11 10 -19 -6
-14 -9 -14 -29 5 -15 14 -23 17 -22 8 1 -33 -4 -48 -17 -48 -8 0 -17 6 -19 13
-4 7 -6 6 -6 -4 -1 -20 59 -31 85 -16 13 8 14 6 5 -11 -17 -32 -14 -52 7 -46
13 4 12 2 -3 -7 -11 -7 -25 -19 -31 -28 -9 -12 -11 -6 -9 27 2 36 -1 42 -17
42 -11 0 -16 -4 -13 -10 3 -5 2 -10 -4 -10 -5 0 -11 8 -14 17 -4 19 -6 16 -22
-34 -6 -18 -25 -6 -28 18 -2 8 -6 20 -10 27 -5 6 -6 16 -3 20 3 5 -11 8 -31 7
-19 -1 -39 -8 -44 -16 -7 -11 -9 -10 -9 4 0 10 -3 16 -7 14 -5 -3 -16 6 -26
18 -21 29 -9 39 39 31 25 -5 34 -4 32 6 -2 7 3 12 10 10 6 -1 12 2 12 6 0 4
-19 8 -42 9 -37 2 -57 14 -58 36 0 4 5 7 11 7 5 0 7 -4 4 -10 -3 -5 -2 -10 4
-10 5 0 13 5 16 10 4 6 10 8 15 5 10 -6 0 36 -13 53 -7 9 -5 11 9 6 10 -4 27
-13 37 -20z m577 16 c0 -5 -4 -10 -10 -10 -5 0 -10 -8 -10 -17 -1 -16 -2 -16
-11 1 -9 14 -8 20 2 27 19 12 29 11 29 -1z m90 -43 c0 -6 -9 -1 -20 11 -11 12
-20 24 -20 28 0 4 9 -1 20 -11 11 -10 20 -23 20 -28z m87 27 c-3 -3 -12 -4
-19 -1 -8 3 -5 6 6 6 11 1 17 -2 13 -5z m-1004 -29 c-7 -21 -13 -19 -13 6 0
11 4 18 10 14 5 -3 7 -12 3 -20z m847 4 c0 -6 -4 -7 -10 -4 -5 3 -10 11 -10
16 0 6 5 7 10 4 6 -3 10 -11 10 -16z m-160 -9 c0 -5 -5 -10 -11 -10 -5 0 -7 5
-4 10 3 6 8 10 11 10 2 0 4 -4 4 -10z m66 -5 c-25 -19 -36 -19 -36 0 0 10 10
15 28 15 26 -1 26 -1 8 -15z m-899 -1 c-3 -3 -12 -4 -19 -1 -8 3 -5 6 6 6 11
1 17 -2 13 -5z m158 -10 c8 3 17 1 20 -4 6 -9 24 -8 43 4 15 9 42 1 42 -13 0
-18 -39 -22 -99 -10 -34 6 -66 18 -72 25 -9 11 -6 12 20 3 17 -6 38 -9 46 -5z
m962 -21 c-3 -10 -5 -4 -5 12 0 17 2 24 5 18 2 -7 2 -21 0 -30z m-281 -11
c-22 -22 -29 -10 -8 16 9 12 19 16 21 11 2 -6 -4 -18 -13 -27z m157 6 c-2 -48
-2 -48 -11 -48 -4 0 -6 18 -4 40 5 48 18 54 15 8z m-696 16 c-3 -3 -12 -4 -19
-1 -8 3 -5 6 6 6 11 1 17 -2 13 -5z m303 -4 c0 -5 -2 -10 -4 -10 -3 0 -8 5
-11 10 -3 6 -1 10 4 10 6 0 11 -4 11 -10z m417 -12 c-3 -8 -6 -5 -6 6 -1 11 2
17 5 13 3 -3 4 -12 1 -19z m33 -21 c0 -5 -4 -5 -10 -2 -5 3 -10 14 -10 23 0
15 2 15 10 2 5 -8 10 -19 10 -23z m94 17 c3 -8 2 -12 -4 -9 -6 3 -10 10 -10
16 0 14 7 11 14 -7z m-47 0 c-3 -3 -12 -4 -19 -1 -8 3 -5 6 6 6 11 1 17 -2 13
-5z m120 -44 c-11 -24 -16 -28 -20 -16 -4 9 -2 16 4 16 6 0 7 5 3 11 -3 6 0
15 7 20 20 12 21 6 6 -31z m97 14 c3 -8 2 -12 -4 -9 -6 3 -10 10 -10 16 0 14
7 11 14 -7z m-607 -14 c2 -23 -7 -25 -26 -7 -11 10 -12 7 -7 -15 4 -17 2 -28
-4 -28 -6 0 -10 15 -8 33 1 25 7 33 23 35 14 1 21 -5 22 -18z m233 10 c0 -5
-4 -10 -9 -10 -6 0 -13 5 -16 10 -3 6 1 10 9 10 9 0 16 -4 16 -10z m198 -12
c-3 -7 -11 -13 -18 -13 -7 0 -15 6 -17 13 -3 7 4 12 17 12 13 0 20 -5 18 -12z
m-78 -4 c0 -2 -9 -8 -20 -14 -15 -8 -18 -8 -14 3 4 11 34 21 34 11z m130 -18
c0 -11 -19 -15 -25 -6 -3 5 1 10 9 10 9 0 16 -2 16 -4z m43 -21 c-3 -9 -8 -14
-10 -11 -3 3 -2 9 2 15 9 16 15 13 8 -4z m-533 -15 c0 -5 -10 -10 -22 -9 -22
0 -22 1 -3 9 11 5 21 9 23 9 1 1 2 -3 2 -9z m-313 -15 c0 -8 -4 -12 -9 -9 -4
3 -8 9 -8 15 0 5 4 9 8 9 5 0 9 -7 9 -15z m138 -45 c3 -5 1 -10 -4 -10 -6 0
-11 5 -11 10 0 6 2 10 4 10 3 0 8 -4 11 -10z m-142 -13 c7 3 10 4 7 0 -3 -3
-8 -5 -11 -4 -4 1 -16 -7 -28 -17 -25 -23 -28 -14 -4 14 10 11 19 16 21 10 2
-5 9 -7 15 -3z m77 -3 c0 -7 4 -15 9 -18 5 -4 7 4 4 16 -5 19 -3 21 7 11 11
-10 11 -18 2 -38 -15 -32 -32 -32 -32 0 0 14 -4 25 -10 25 -5 0 -10 4 -10 8 0
5 7 9 15 9 8 0 15 -6 15 -13z"/>
<path d="M1500 1644 c0 -8 5 -12 10 -9 6 4 8 11 5 16 -9 14 -15 11 -15 -7z"/>
<path d="M1505 1460 c-3 -5 3 -10 15 -10 12 0 18 5 15 10 -3 6 -10 10 -15 10
-5 0 -12 -4 -15 -10z"/>
<path d="M1765 1520 c-3 -5 -1 -10 4 -10 6 0 11 5 11 10 0 6 -2 10 -4 10 -3 0
-8 -4 -11 -10z"/>
<path d="M675 1241 c-3 -5 -1 -12 5 -16 5 -3 10 1 10 9 0 18 -6 21 -15 7z"/>
<path d="M660 1111 c0 -6 4 -13 10 -16 6 -3 7 1 4 9 -7 18 -14 21 -14 7z"/>
<path d="M1540 1040 c0 -5 5 -10 11 -10 5 0 7 5 4 10 -3 6 -8 10 -11 10 -2 0
-4 -4 -4 -10z"/>
<path d="M1520 1020 c0 -5 5 -10 11 -10 5 0 7 5 4 10 -3 6 -8 10 -11 10 -2 0
-4 -4 -4 -10z"/>
<path d="M662 825 c-16 -18 -36 -20 -26 -2 4 6 3 8 -1 4 -17 -15 -13 -35 9
-39 29 -6 89 19 80 33 -5 8 -9 8 -14 -1 -5 -8 -9 -7 -13 4 -8 20 -18 20 -35 1z"/>
<path d="M693 773 c9 -2 23 -2 30 0 6 3 -1 5 -18 5 -16 0 -22 -2 -12 -5z"/>
<path d="M354 722 c9 -15 -28 -25 -67 -17 -21 4 -27 3 -17 -3 8 -5 31 -12 51
-16 31 -5 37 -3 42 14 3 11 0 23 -5 27 -6 3 -8 1 -4 -5z"/>
<path d="M1770 780 c0 -5 5 -10 11 -10 5 0 7 5 4 10 -3 6 -8 10 -11 10 -2 0
-4 -4 -4 -10z"/>
<path d="M1745 770 c-8 -13 -1 -24 14 -19 6 3 7 10 2 18 -6 10 -10 10 -16 1z"/>
<path d="M1186 382 c-2 -4 -1 -14 4 -22 7 -11 9 -9 7 8 -1 24 -3 26 -11 14z"/>
<path d="M1000 340 c0 -5 5 -10 10 -10 6 0 10 5 10 10 0 6 -4 10 -10 10 -5 0
-10 -4 -10 -10z"/>
<path d="M1095 230 c3 -5 8 -10 11 -10 2 0 4 5 4 10 0 6 -5 10 -11 10 -5 0 -7
-4 -4 -10z"/>
<path d="M1126 231 c-3 -5 1 -11 9 -15 9 -3 15 0 15 9 0 16 -16 20 -24 6z"/>
<path d="M894 1546 c-3 -8 -1 -23 5 -35 16 -29 13 -41 -10 -41 -11 0 -27 -7
-36 -16 -14 -14 -17 -14 -31 0 -14 14 -18 13 -39 -10 -31 -34 -29 -41 11 -46
24 -3 32 0 29 9 -3 7 0 13 6 13 6 0 11 -5 11 -11 0 -6 13 0 29 13 15 12 36 28
46 33 14 8 16 18 10 58 -7 46 -20 61 -31 33z"/>
<path d="M947 1533 c-10 -9 -9 -43 2 -43 5 0 11 6 14 13 6 17 -7 40 -16 30z"/>
<path d="M713 1415 c0 -8 4 -12 9 -9 5 3 6 10 3 15 -9 13 -12 11 -12 -6z"/>
<path d="M922 1412 c-9 -12 -14 -14 -18 -4 -7 16 -25 16 -21 0 2 -14 26 -42
31 -37 9 11 27 51 24 54 -2 2 -9 -4 -16 -13z"/>
<path d="M380 1090 c0 -5 5 -10 11 -10 5 0 7 5 4 10 -3 6 -8 10 -11 10 -2 0
-4 -4 -4 -10z"/>
</g>
</svg>
